<?xml version="1.0" encoding="utf-8" standalone="no"?>
<!DOCTYPE svg PUBLIC "-//W3C//DTD SVG 1.1//EN"
  "http://www.w3.org/Graphics/SVG/1.1/DTD/svg11.dtd">
<svg xmlns:xlink="http://www.w3.org/1999/xlink" width="864pt" height="720pt" viewBox="0 0 864 720" xmlns="http://www.w3.org/2000/svg" version="1.1">
 <metadata>
  <rdf:RDF xmlns:dc="http://purl.org/dc/elements/1.1/" xmlns:cc="http://creativecommons.org/ns#" xmlns:rdf="http://www.w3.org/1999/02/22-rdf-syntax-ns#">
   <cc:Work>
    <dc:type rdf:resource="http://purl.org/dc/dcmitype/StillImage"/>
    <dc:date>2025-03-04T22:13:35.257641</dc:date>
    <dc:format>image/svg+xml</dc:format>
    <dc:creator>
     <cc:Agent>
      <dc:title>Matplotlib v3.9.2, https://matplotlib.org/</dc:title>
     </cc:Agent>
    </dc:creator>
   </cc:Work>
  </rdf:RDF>
 </metadata>
 <defs>
  <style type="text/css">*{stroke-linejoin: round; stroke-linecap: butt}</style>
 </defs>
 <g id="figure_1">
  <g id="patch_1">
   <path d="M 0 720 
L 864 720 
L 864 0 
L 0 0 
z
" style="fill: #ffffff"/>
  </g>
  <g id="axes_1">
   <g id="patch_2">
    <path d="M 63.882 664.308 
L 848.448 664.308 
L 848.448 45.504 
L 63.882 45.504 
z
" style="fill: #eaeaf2"/>
   </g>
   <g id="matplotlib.axis_1">
    <g id="xtick_1">
     <g id="line2d_1">
      <path d="M 96.152527 664.308 
L 96.152527 45.504 
" clip-path="url(#p1e5273c5b7)" style="fill: none; stroke: #ffffff; stroke-linecap: round"/>
     </g>
     <g id="text_1">
      <!-- −4 -->
      <g style="fill: #262626" transform="translate(86.422683 683.837937) scale(0.132 -0.132)">
       <defs>
        <path id="DejaVuSans-2212" d="M 678 2272 
L 4684 2272 
L 4684 1741 
L 678 1741 
L 678 2272 
z
" transform="scale(0.015625)"/>
        <path id="DejaVuSans-34" d="M 2419 4116 
L 825 1625 
L 2419 1625 
L 2419 4116 
z
M 2253 4666 
L 3047 4666 
L 3047 1625 
L 3713 1625 
L 3713 1100 
L 3047 1100 
L 3047 0 
L 2419 0 
L 2419 1100 
L 313 1100 
L 313 1709 
L 2253 4666 
z
" transform="scale(0.015625)"/>
       </defs>
       <use xlink:href="#DejaVuSans-2212"/>
       <use xlink:href="#DejaVuSans-34" x="83.789062"/>
      </g>
     </g>
    </g>
    <g id="xtick_2">
     <g id="line2d_2">
      <path d="M 267.345473 664.308 
L 267.345473 45.504 
" clip-path="url(#p1e5273c5b7)" style="fill: none; stroke: #ffffff; stroke-linecap: round"/>
     </g>
     <g id="text_2">
      <!-- −2 -->
      <g style="fill: #262626" transform="translate(257.615629 683.837937) scale(0.132 -0.132)">
       <defs>
        <path id="DejaVuSans-32" d="M 1228 531 
L 3431 531 
L 3431 0 
L 469 0 
L 469 531 
Q 828 903 1448 1529 
Q 2069 2156 2228 2338 
Q 2531 2678 2651 2914 
Q 2772 3150 2772 3378 
Q 2772 3750 2511 3984 
Q 2250 4219 1831 4219 
Q 1534 4219 1204 4116 
Q 875 4013 500 3803 
L 500 4441 
Q 881 4594 1212 4672 
Q 1544 4750 1819 4750 
Q 2544 4750 2975 4387 
Q 3406 4025 3406 3419 
Q 3406 3131 3298 2873 
Q 3191 2616 2906 2266 
Q 2828 2175 2409 1742 
Q 1991 1309 1228 531 
z
" transform="scale(0.015625)"/>
       </defs>
       <use xlink:href="#DejaVuSans-2212"/>
       <use xlink:href="#DejaVuSans-32" x="83.789062"/>
      </g>
     </g>
    </g>
    <g id="xtick_3">
     <g id="line2d_3">
      <path d="M 438.538418 664.308 
L 438.538418 45.504 
" clip-path="url(#p1e5273c5b7)" style="fill: none; stroke: #ffffff; stroke-linecap: round"/>
     </g>
     <g id="text_3">
      <!-- 0 -->
      <g style="fill: #262626" transform="translate(434.339168 683.837937) scale(0.132 -0.132)">
       <defs>
        <path id="DejaVuSans-30" d="M 2034 4250 
Q 1547 4250 1301 3770 
Q 1056 3291 1056 2328 
Q 1056 1369 1301 889 
Q 1547 409 2034 409 
Q 2525 409 2770 889 
Q 3016 1369 3016 2328 
Q 3016 3291 2770 3770 
Q 2525 4250 2034 4250 
z
M 2034 4750 
Q 2819 4750 3233 4129 
Q 3647 3509 3647 2328 
Q 3647 1150 3233 529 
Q 2819 -91 2034 -91 
Q 1250 -91 836 529 
Q 422 1150 422 2328 
Q 422 3509 836 4129 
Q 1250 4750 2034 4750 
z
" transform="scale(0.015625)"/>
       </defs>
       <use xlink:href="#DejaVuSans-30"/>
      </g>
     </g>
    </g>
    <g id="xtick_4">
     <g id="line2d_4">
      <path d="M 609.731364 664.308 
L 609.731364 45.504 
" clip-path="url(#p1e5273c5b7)" style="fill: none; stroke: #ffffff; stroke-linecap: round"/>
     </g>
     <g id="text_4">
      <!-- 2 -->
      <g style="fill: #262626" transform="translate(605.532114 683.837937) scale(0.132 -0.132)">
       <use xlink:href="#DejaVuSans-32"/>
      </g>
     </g>
    </g>
    <g id="xtick_5">
     <g id="line2d_5">
      <path d="M 780.92431 664.308 
L 780.92431 45.504 
" clip-path="url(#p1e5273c5b7)" style="fill: none; stroke: #ffffff; stroke-linecap: round"/>
     </g>
     <g id="text_5">
      <!-- 4 -->
      <g style="fill: #262626" transform="translate(776.72506 683.837937) scale(0.132 -0.132)">
       <use xlink:href="#DejaVuSans-34"/>
      </g>
     </g>
    </g>
    <g id="text_6">
     <!-- Action -->
     <g style="fill: #262626" transform="translate(433.6155 701.524875) scale(0.144 -0.144)">
      <defs>
       <path id="DejaVuSans-41" d="M 2188 4044 
L 1331 1722 
L 3047 1722 
L 2188 4044 
z
M 1831 4666 
L 2547 4666 
L 4325 0 
L 3669 0 
L 3244 1197 
L 1141 1197 
L 716 0 
L 50 0 
L 1831 4666 
z
" transform="scale(0.015625)"/>
       <path id="DejaVuSans-63" d="M 3122 3366 
L 3122 2828 
Q 2878 2963 2633 3030 
Q 2388 3097 2138 3097 
Q 1578 3097 1268 2742 
Q 959 2388 959 1747 
Q 959 1106 1268 751 
Q 1578 397 2138 397 
Q 2388 397 2633 464 
Q 2878 531 3122 666 
L 3122 134 
Q 2881 22 2623 -34 
Q 2366 -91 2075 -91 
Q 1284 -91 818 406 
Q 353 903 353 1747 
Q 353 2603 823 3093 
Q 1294 3584 2113 3584 
Q 2378 3584 2631 3529 
Q 2884 3475 3122 3366 
z
" transform="scale(0.015625)"/>
       <path id="DejaVuSans-74" d="M 1172 4494 
L 1172 3500 
L 2356 3500 
L 2356 3053 
L 1172 3053 
L 1172 1153 
Q 1172 725 1289 603 
Q 1406 481 1766 481 
L 2356 481 
L 2356 0 
L 1766 0 
Q 1100 0 847 248 
Q 594 497 594 1153 
L 594 3053 
L 172 3053 
L 172 3500 
L 594 3500 
L 594 4494 
L 1172 4494 
z
" transform="scale(0.015625)"/>
       <path id="DejaVuSans-69" d="M 603 3500 
L 1178 3500 
L 1178 0 
L 603 0 
L 603 3500 
z
M 603 4863 
L 1178 4863 
L 1178 4134 
L 603 4134 
L 603 4863 
z
" transform="scale(0.015625)"/>
       <path id="DejaVuSans-6f" d="M 1959 3097 
Q 1497 3097 1228 2736 
Q 959 2375 959 1747 
Q 959 1119 1226 758 
Q 1494 397 1959 397 
Q 2419 397 2687 759 
Q 2956 1122 2956 1747 
Q 2956 2369 2687 2733 
Q 2419 3097 1959 3097 
z
M 1959 3584 
Q 2709 3584 3137 3096 
Q 3566 2609 3566 1747 
Q 3566 888 3137 398 
Q 2709 -91 1959 -91 
Q 1206 -91 779 398 
Q 353 888 353 1747 
Q 353 2609 779 3096 
Q 1206 3584 1959 3584 
z
" transform="scale(0.015625)"/>
       <path id="DejaVuSans-6e" d="M 3513 2113 
L 3513 0 
L 2938 0 
L 2938 2094 
Q 2938 2591 2744 2837 
Q 2550 3084 2163 3084 
Q 1697 3084 1428 2787 
Q 1159 2491 1159 1978 
L 1159 0 
L 581 0 
L 581 3500 
L 1159 3500 
L 1159 2956 
Q 1366 3272 1645 3428 
Q 1925 3584 2291 3584 
Q 2894 3584 3203 3211 
Q 3513 2838 3513 2113 
z
" transform="scale(0.015625)"/>
      </defs>
      <use xlink:href="#DejaVuSans-41"/>
      <use xlink:href="#DejaVuSans-63" x="66.658203"/>
      <use xlink:href="#DejaVuSans-74" x="121.638672"/>
      <use xlink:href="#DejaVuSans-69" x="160.847656"/>
      <use xlink:href="#DejaVuSans-6f" x="188.630859"/>
      <use xlink:href="#DejaVuSans-6e" x="249.8125"/>
     </g>
    </g>
   </g>
   <g id="matplotlib.axis_2">
    <g id="ytick_1">
     <g id="line2d_6">
      <path d="M 63.882 664.308 
L 848.448 664.308 
" clip-path="url(#p1e5273c5b7)" style="fill: none; stroke: #ffffff; stroke-linecap: round"/>
     </g>
     <g id="text_7">
      <!-- 0.0 -->
      <g style="fill: #262626" transform="translate(33.389875 669.322969) scale(0.132 -0.132)">
       <defs>
        <path id="DejaVuSans-2e" d="M 684 794 
L 1344 794 
L 1344 0 
L 684 0 
L 684 794 
z
" transform="scale(0.015625)"/>
       </defs>
       <use xlink:href="#DejaVuSans-30"/>
       <use xlink:href="#DejaVuSans-2e" x="63.623047"/>
       <use xlink:href="#DejaVuSans-30" x="95.410156"/>
      </g>
     </g>
    </g>
    <g id="ytick_2">
     <g id="line2d_7">
      <path d="M 63.882 584.058773 
L 848.448 584.058773 
" clip-path="url(#p1e5273c5b7)" style="fill: none; stroke: #ffffff; stroke-linecap: round"/>
     </g>
     <g id="text_8">
      <!-- 0.1 -->
      <g style="fill: #262626" transform="translate(33.389875 589.073742) scale(0.132 -0.132)">
       <defs>
        <path id="DejaVuSans-31" d="M 794 531 
L 1825 531 
L 1825 4091 
L 703 3866 
L 703 4441 
L 1819 4666 
L 2450 4666 
L 2450 531 
L 3481 531 
L 3481 0 
L 794 0 
L 794 531 
z
" transform="scale(0.015625)"/>
       </defs>
       <use xlink:href="#DejaVuSans-30"/>
       <use xlink:href="#DejaVuSans-2e" x="63.623047"/>
       <use xlink:href="#DejaVuSans-31" x="95.410156"/>
      </g>
     </g>
    </g>
    <g id="ytick_3">
     <g id="line2d_8">
      <path d="M 63.882 503.809546 
L 848.448 503.809546 
" clip-path="url(#p1e5273c5b7)" style="fill: none; stroke: #ffffff; stroke-linecap: round"/>
     </g>
     <g id="text_9">
      <!-- 0.2 -->
      <g style="fill: #262626" transform="translate(33.389875 508.824515) scale(0.132 -0.132)">
       <use xlink:href="#DejaVuSans-30"/>
       <use xlink:href="#DejaVuSans-2e" x="63.623047"/>
       <use xlink:href="#DejaVuSans-32" x="95.410156"/>
      </g>
     </g>
    </g>
    <g id="ytick_4">
     <g id="line2d_9">
      <path d="M 63.882 423.56032 
L 848.448 423.56032 
" clip-path="url(#p1e5273c5b7)" style="fill: none; stroke: #ffffff; stroke-linecap: round"/>
     </g>
     <g id="text_10">
      <!-- 0.3 -->
      <g style="fill: #262626" transform="translate(33.389875 428.575288) scale(0.132 -0.132)">
       <defs>
        <path id="DejaVuSans-33" d="M 2597 2516 
Q 3050 2419 3304 2112 
Q 3559 1806 3559 1356 
Q 3559 666 3084 287 
Q 2609 -91 1734 -91 
Q 1441 -91 1130 -33 
Q 819 25 488 141 
L 488 750 
Q 750 597 1062 519 
Q 1375 441 1716 441 
Q 2309 441 2620 675 
Q 2931 909 2931 1356 
Q 2931 1769 2642 2001 
Q 2353 2234 1838 2234 
L 1294 2234 
L 1294 2753 
L 1863 2753 
Q 2328 2753 2575 2939 
Q 2822 3125 2822 3475 
Q 2822 3834 2567 4026 
Q 2313 4219 1838 4219 
Q 1578 4219 1281 4162 
Q 984 4106 628 3988 
L 628 4550 
Q 988 4650 1302 4700 
Q 1616 4750 1894 4750 
Q 2613 4750 3031 4423 
Q 3450 4097 3450 3541 
Q 3450 3153 3228 2886 
Q 3006 2619 2597 2516 
z
" transform="scale(0.015625)"/>
       </defs>
       <use xlink:href="#DejaVuSans-30"/>
       <use xlink:href="#DejaVuSans-2e" x="63.623047"/>
       <use xlink:href="#DejaVuSans-33" x="95.410156"/>
      </g>
     </g>
    </g>
    <g id="ytick_5">
     <g id="line2d_10">
      <path d="M 63.882 343.311093 
L 848.448 343.311093 
" clip-path="url(#p1e5273c5b7)" style="fill: none; stroke: #ffffff; stroke-linecap: round"/>
     </g>
     <g id="text_11">
      <!-- 0.4 -->
      <g style="fill: #262626" transform="translate(33.389875 348.326062) scale(0.132 -0.132)">
       <use xlink:href="#DejaVuSans-30"/>
       <use xlink:href="#DejaVuSans-2e" x="63.623047"/>
       <use xlink:href="#DejaVuSans-34" x="95.410156"/>
      </g>
     </g>
    </g>
    <g id="ytick_6">
     <g id="line2d_11">
      <path d="M 63.882 263.061866 
L 848.448 263.061866 
" clip-path="url(#p1e5273c5b7)" style="fill: none; stroke: #ffffff; stroke-linecap: round"/>
     </g>
     <g id="text_12">
      <!-- 0.5 -->
      <g style="fill: #262626" transform="translate(33.389875 268.076835) scale(0.132 -0.132)">
       <defs>
        <path id="DejaVuSans-35" d="M 691 4666 
L 3169 4666 
L 3169 4134 
L 1269 4134 
L 1269 2991 
Q 1406 3038 1543 3061 
Q 1681 3084 1819 3084 
Q 2600 3084 3056 2656 
Q 3513 2228 3513 1497 
Q 3513 744 3044 326 
Q 2575 -91 1722 -91 
Q 1428 -91 1123 -41 
Q 819 9 494 109 
L 494 744 
Q 775 591 1075 516 
Q 1375 441 1709 441 
Q 2250 441 2565 725 
Q 2881 1009 2881 1497 
Q 2881 1984 2565 2268 
Q 2250 2553 1709 2553 
Q 1456 2553 1204 2497 
Q 953 2441 691 2322 
L 691 4666 
z
" transform="scale(0.015625)"/>
       </defs>
       <use xlink:href="#DejaVuSans-30"/>
       <use xlink:href="#DejaVuSans-2e" x="63.623047"/>
       <use xlink:href="#DejaVuSans-35" x="95.410156"/>
      </g>
     </g>
    </g>
    <g id="ytick_7">
     <g id="line2d_12">
      <path d="M 63.882 182.812639 
L 848.448 182.812639 
" clip-path="url(#p1e5273c5b7)" style="fill: none; stroke: #ffffff; stroke-linecap: round"/>
     </g>
     <g id="text_13">
      <!-- 0.6 -->
      <g style="fill: #262626" transform="translate(33.389875 187.827608) scale(0.132 -0.132)">
       <defs>
        <path id="DejaVuSans-36" d="M 2113 2584 
Q 1688 2584 1439 2293 
Q 1191 2003 1191 1497 
Q 1191 994 1439 701 
Q 1688 409 2113 409 
Q 2538 409 2786 701 
Q 3034 994 3034 1497 
Q 3034 2003 2786 2293 
Q 2538 2584 2113 2584 
z
M 3366 4563 
L 3366 3988 
Q 3128 4100 2886 4159 
Q 2644 4219 2406 4219 
Q 1781 4219 1451 3797 
Q 1122 3375 1075 2522 
Q 1259 2794 1537 2939 
Q 1816 3084 2150 3084 
Q 2853 3084 3261 2657 
Q 3669 2231 3669 1497 
Q 3669 778 3244 343 
Q 2819 -91 2113 -91 
Q 1303 -91 875 529 
Q 447 1150 447 2328 
Q 447 3434 972 4092 
Q 1497 4750 2381 4750 
Q 2619 4750 2861 4703 
Q 3103 4656 3366 4563 
z
" transform="scale(0.015625)"/>
       </defs>
       <use xlink:href="#DejaVuSans-30"/>
       <use xlink:href="#DejaVuSans-2e" x="63.623047"/>
       <use xlink:href="#DejaVuSans-36" x="95.410156"/>
      </g>
     </g>
    </g>
    <g id="ytick_8">
     <g id="line2d_13">
      <path d="M 63.882 102.563412 
L 848.448 102.563412 
" clip-path="url(#p1e5273c5b7)" style="fill: none; stroke: #ffffff; stroke-linecap: round"/>
     </g>
     <g id="text_14">
      <!-- 0.7 -->
      <g style="fill: #262626" transform="translate(33.389875 107.578381) scale(0.132 -0.132)">
       <defs>
        <path id="DejaVuSans-37" d="M 525 4666 
L 3525 4666 
L 3525 4397 
L 1831 0 
L 1172 0 
L 2766 4134 
L 525 4134 
L 525 4666 
z
" transform="scale(0.015625)"/>
       </defs>
       <use xlink:href="#DejaVuSans-30"/>
       <use xlink:href="#DejaVuSans-2e" x="63.623047"/>
       <use xlink:href="#DejaVuSans-37" x="95.410156"/>
      </g>
     </g>
    </g>
    <g id="text_15">
     <!-- Density -->
     <g style="fill: #262626" transform="translate(26.395125 382.278375) rotate(-90) scale(0.144 -0.144)">
      <defs>
       <path id="DejaVuSans-44" d="M 1259 4147 
L 1259 519 
L 2022 519 
Q 2988 519 3436 956 
Q 3884 1394 3884 2338 
Q 3884 3275 3436 3711 
Q 2988 4147 2022 4147 
L 1259 4147 
z
M 628 4666 
L 1925 4666 
Q 3281 4666 3915 4102 
Q 4550 3538 4550 2338 
Q 4550 1131 3912 565 
Q 3275 0 1925 0 
L 628 0 
L 628 4666 
z
" transform="scale(0.015625)"/>
       <path id="DejaVuSans-65" d="M 3597 1894 
L 3597 1613 
L 953 1613 
Q 991 1019 1311 708 
Q 1631 397 2203 397 
Q 2534 397 2845 478 
Q 3156 559 3463 722 
L 3463 178 
Q 3153 47 2828 -22 
Q 2503 -91 2169 -91 
Q 1331 -91 842 396 
Q 353 884 353 1716 
Q 353 2575 817 3079 
Q 1281 3584 2069 3584 
Q 2775 3584 3186 3129 
Q 3597 2675 3597 1894 
z
M 3022 2063 
Q 3016 2534 2758 2815 
Q 2500 3097 2075 3097 
Q 1594 3097 1305 2825 
Q 1016 2553 972 2059 
L 3022 2063 
z
" transform="scale(0.015625)"/>
       <path id="DejaVuSans-73" d="M 2834 3397 
L 2834 2853 
Q 2591 2978 2328 3040 
Q 2066 3103 1784 3103 
Q 1356 3103 1142 2972 
Q 928 2841 928 2578 
Q 928 2378 1081 2264 
Q 1234 2150 1697 2047 
L 1894 2003 
Q 2506 1872 2764 1633 
Q 3022 1394 3022 966 
Q 3022 478 2636 193 
Q 2250 -91 1575 -91 
Q 1294 -91 989 -36 
Q 684 19 347 128 
L 347 722 
Q 666 556 975 473 
Q 1284 391 1588 391 
Q 1994 391 2212 530 
Q 2431 669 2431 922 
Q 2431 1156 2273 1281 
Q 2116 1406 1581 1522 
L 1381 1569 
Q 847 1681 609 1914 
Q 372 2147 372 2553 
Q 372 3047 722 3315 
Q 1072 3584 1716 3584 
Q 2034 3584 2315 3537 
Q 2597 3491 2834 3397 
z
" transform="scale(0.015625)"/>
       <path id="DejaVuSans-79" d="M 2059 -325 
Q 1816 -950 1584 -1140 
Q 1353 -1331 966 -1331 
L 506 -1331 
L 506 -850 
L 844 -850 
Q 1081 -850 1212 -737 
Q 1344 -625 1503 -206 
L 1606 56 
L 191 3500 
L 800 3500 
L 1894 763 
L 2988 3500 
L 3597 3500 
L 2059 -325 
z
" transform="scale(0.015625)"/>
      </defs>
      <use xlink:href="#DejaVuSans-44"/>
      <use xlink:href="#DejaVuSans-65" x="77.001953"/>
      <use xlink:href="#DejaVuSans-6e" x="138.525391"/>
      <use xlink:href="#DejaVuSans-73" x="201.904297"/>
      <use xlink:href="#DejaVuSans-69" x="254.003906"/>
      <use xlink:href="#DejaVuSans-74" x="281.787109"/>
      <use xlink:href="#DejaVuSans-79" x="320.996094"/>
     </g>
    </g>
   </g>
   <g id="patch_3">
    <path d="M 99.544091 664.308 
L 104.497159 664.308 
L 104.497159 664.030635 
L 99.544091 664.030635 
z
" clip-path="url(#p1e5273c5b7)" style="fill: #4c72b0; fill-opacity: 0.5; stroke: #ffffff; stroke-width: 0.422727; stroke-linejoin: miter"/>
   </g>
   <g id="patch_4">
    <path d="M 104.497159 664.308 
L 109.450227 664.308 
L 109.450227 664.308 
L 104.497159 664.308 
z
" clip-path="url(#p1e5273c5b7)" style="fill: #4c72b0; fill-opacity: 0.5; stroke: #ffffff; stroke-width: 0.422727; stroke-linejoin: miter"/>
   </g>
   <g id="patch_5">
    <path d="M 109.450227 664.308 
L 114.403295 664.308 
L 114.403295 664.308 
L 109.450227 664.308 
z
" clip-path="url(#p1e5273c5b7)" style="fill: #4c72b0; fill-opacity: 0.5; stroke: #ffffff; stroke-width: 0.422727; stroke-linejoin: miter"/>
   </g>
   <g id="patch_6">
    <path d="M 114.403295 664.308 
L 119.356364 664.308 
L 119.356364 664.169317 
L 114.403295 664.169317 
z
" clip-path="url(#p1e5273c5b7)" style="fill: #4c72b0; fill-opacity: 0.5; stroke: #ffffff; stroke-width: 0.422727; stroke-linejoin: miter"/>
   </g>
   <g id="patch_7">
    <path d="M 119.356364 664.308 
L 124.309432 664.308 
L 124.309432 664.169317 
L 119.356364 664.169317 
z
" clip-path="url(#p1e5273c5b7)" style="fill: #4c72b0; fill-opacity: 0.5; stroke: #ffffff; stroke-width: 0.422727; stroke-linejoin: miter"/>
   </g>
   <g id="patch_8">
    <path d="M 124.309432 664.308 
L 129.2625 664.308 
L 129.2625 663.337221 
L 124.309432 663.337221 
z
" clip-path="url(#p1e5273c5b7)" style="fill: #4c72b0; fill-opacity: 0.5; stroke: #ffffff; stroke-width: 0.422727; stroke-linejoin: miter"/>
   </g>
   <g id="patch_9">
    <path d="M 129.2625 664.308 
L 134.215568 664.308 
L 134.215568 663.753269 
L 129.2625 663.753269 
z
" clip-path="url(#p1e5273c5b7)" style="fill: #4c72b0; fill-opacity: 0.5; stroke: #ffffff; stroke-width: 0.422727; stroke-linejoin: miter"/>
   </g>
   <g id="patch_10">
    <path d="M 134.215568 664.308 
L 139.168636 664.308 
L 139.168636 663.337221 
L 134.215568 663.337221 
z
" clip-path="url(#p1e5273c5b7)" style="fill: #4c72b0; fill-opacity: 0.5; stroke: #ffffff; stroke-width: 0.422727; stroke-linejoin: miter"/>
   </g>
   <g id="patch_11">
    <path d="M 139.168636 664.308 
L 144.121705 664.308 
L 144.121705 663.475904 
L 139.168636 663.475904 
z
" clip-path="url(#p1e5273c5b7)" style="fill: #4c72b0; fill-opacity: 0.5; stroke: #ffffff; stroke-width: 0.422727; stroke-linejoin: miter"/>
   </g>
   <g id="patch_12">
    <path d="M 144.121705 664.308 
L 149.074773 664.308 
L 149.074773 663.059855 
L 144.121705 663.059855 
z
" clip-path="url(#p1e5273c5b7)" style="fill: #4c72b0; fill-opacity: 0.5; stroke: #ffffff; stroke-width: 0.422727; stroke-linejoin: miter"/>
   </g>
   <g id="patch_13">
    <path d="M 149.074773 664.308 
L 154.027841 664.308 
L 154.027841 662.643807 
L 149.074773 662.643807 
z
" clip-path="url(#p1e5273c5b7)" style="fill: #4c72b0; fill-opacity: 0.5; stroke: #ffffff; stroke-width: 0.422727; stroke-linejoin: miter"/>
   </g>
   <g id="patch_14">
    <path d="M 154.027841 664.308 
L 158.980909 664.308 
L 158.980909 663.059855 
L 154.027841 663.059855 
z
" clip-path="url(#p1e5273c5b7)" style="fill: #4c72b0; fill-opacity: 0.5; stroke: #ffffff; stroke-width: 0.422727; stroke-linejoin: miter"/>
   </g>
   <g id="patch_15">
    <path d="M 158.980909 664.308 
L 163.933977 664.308 
L 163.933977 662.366442 
L 158.980909 662.366442 
z
" clip-path="url(#p1e5273c5b7)" style="fill: #4c72b0; fill-opacity: 0.5; stroke: #ffffff; stroke-width: 0.422727; stroke-linejoin: miter"/>
   </g>
   <g id="patch_16">
    <path d="M 163.933977 664.308 
L 168.887045 664.308 
L 168.887045 661.950393 
L 163.933977 661.950393 
z
" clip-path="url(#p1e5273c5b7)" style="fill: #4c72b0; fill-opacity: 0.5; stroke: #ffffff; stroke-width: 0.422727; stroke-linejoin: miter"/>
   </g>
   <g id="patch_17">
    <path d="M 168.887045 664.308 
L 173.840114 664.308 
L 173.840114 661.950393 
L 168.887045 661.950393 
z
" clip-path="url(#p1e5273c5b7)" style="fill: #4c72b0; fill-opacity: 0.5; stroke: #ffffff; stroke-width: 0.422727; stroke-linejoin: miter"/>
   </g>
   <g id="patch_18">
    <path d="M 173.840114 664.308 
L 178.793182 664.308 
L 178.793182 660.840931 
L 173.840114 660.840931 
z
" clip-path="url(#p1e5273c5b7)" style="fill: #4c72b0; fill-opacity: 0.5; stroke: #ffffff; stroke-width: 0.422727; stroke-linejoin: miter"/>
   </g>
   <g id="patch_19">
    <path d="M 178.793182 664.308 
L 183.74625 664.308 
L 183.74625 661.395662 
L 178.793182 661.395662 
z
" clip-path="url(#p1e5273c5b7)" style="fill: #4c72b0; fill-opacity: 0.5; stroke: #ffffff; stroke-width: 0.422727; stroke-linejoin: miter"/>
   </g>
   <g id="patch_20">
    <path d="M 183.74625 664.308 
L 188.699318 664.308 
L 188.699318 660.702249 
L 183.74625 660.702249 
z
" clip-path="url(#p1e5273c5b7)" style="fill: #4c72b0; fill-opacity: 0.5; stroke: #ffffff; stroke-width: 0.422727; stroke-linejoin: miter"/>
   </g>
   <g id="patch_21">
    <path d="M 188.699318 664.308 
L 193.652386 664.308 
L 193.652386 659.454104 
L 188.699318 659.454104 
z
" clip-path="url(#p1e5273c5b7)" style="fill: #4c72b0; fill-opacity: 0.5; stroke: #ffffff; stroke-width: 0.422727; stroke-linejoin: miter"/>
   </g>
   <g id="patch_22">
    <path d="M 193.652386 664.308 
L 198.605455 664.308 
L 198.605455 659.038056 
L 193.652386 659.038056 
z
" clip-path="url(#p1e5273c5b7)" style="fill: #4c72b0; fill-opacity: 0.5; stroke: #ffffff; stroke-width: 0.422727; stroke-linejoin: miter"/>
   </g>
   <g id="patch_23">
    <path d="M 198.605455 664.308 
L 203.558523 664.308 
L 203.558523 656.125718 
L 198.605455 656.125718 
z
" clip-path="url(#p1e5273c5b7)" style="fill: #4c72b0; fill-opacity: 0.5; stroke: #ffffff; stroke-width: 0.422727; stroke-linejoin: miter"/>
   </g>
   <g id="patch_24">
    <path d="M 203.558523 664.308 
L 208.511591 664.308 
L 208.511591 655.293622 
L 203.558523 655.293622 
z
" clip-path="url(#p1e5273c5b7)" style="fill: #4c72b0; fill-opacity: 0.5; stroke: #ffffff; stroke-width: 0.422727; stroke-linejoin: miter"/>
   </g>
   <g id="patch_25">
    <path d="M 208.511591 664.308 
L 213.464659 664.308 
L 213.464659 653.490746 
L 208.511591 653.490746 
z
" clip-path="url(#p1e5273c5b7)" style="fill: #4c72b0; fill-opacity: 0.5; stroke: #ffffff; stroke-width: 0.422727; stroke-linejoin: miter"/>
   </g>
   <g id="patch_26">
    <path d="M 213.464659 664.308 
L 218.417727 664.308 
L 218.417727 654.461525 
L 213.464659 654.461525 
z
" clip-path="url(#p1e5273c5b7)" style="fill: #4c72b0; fill-opacity: 0.5; stroke: #ffffff; stroke-width: 0.422727; stroke-linejoin: miter"/>
   </g>
   <g id="patch_27">
    <path d="M 218.417727 664.308 
L 223.370795 664.308 
L 223.370795 651.271822 
L 218.417727 651.271822 
z
" clip-path="url(#p1e5273c5b7)" style="fill: #4c72b0; fill-opacity: 0.5; stroke: #ffffff; stroke-width: 0.422727; stroke-linejoin: miter"/>
   </g>
   <g id="patch_28">
    <path d="M 223.370795 664.308 
L 228.323864 664.308 
L 228.323864 649.746312 
L 223.370795 649.746312 
z
" clip-path="url(#p1e5273c5b7)" style="fill: #4c72b0; fill-opacity: 0.5; stroke: #ffffff; stroke-width: 0.422727; stroke-linejoin: miter"/>
   </g>
   <g id="patch_29">
    <path d="M 228.323864 664.308 
L 233.276932 664.308 
L 233.276932 647.943436 
L 228.323864 647.943436 
z
" clip-path="url(#p1e5273c5b7)" style="fill: #4c72b0; fill-opacity: 0.5; stroke: #ffffff; stroke-width: 0.422727; stroke-linejoin: miter"/>
   </g>
   <g id="patch_30">
    <path d="M 233.276932 664.308 
L 238.23 664.308 
L 238.23 643.08954 
L 233.276932 643.08954 
z
" clip-path="url(#p1e5273c5b7)" style="fill: #4c72b0; fill-opacity: 0.5; stroke: #ffffff; stroke-width: 0.422727; stroke-linejoin: miter"/>
   </g>
   <g id="patch_31">
    <path d="M 238.23 664.308 
L 243.183068 664.308 
L 243.183068 644.337685 
L 238.23 644.337685 
z
" clip-path="url(#p1e5273c5b7)" style="fill: #4c72b0; fill-opacity: 0.5; stroke: #ffffff; stroke-width: 0.422727; stroke-linejoin: miter"/>
   </g>
   <g id="patch_32">
    <path d="M 243.183068 664.308 
L 248.136136 664.308 
L 248.136136 639.622472 
L 243.183068 639.622472 
z
" clip-path="url(#p1e5273c5b7)" style="fill: #4c72b0; fill-opacity: 0.5; stroke: #ffffff; stroke-width: 0.422727; stroke-linejoin: miter"/>
   </g>
   <g id="patch_33">
    <path d="M 248.136136 664.308 
L 253.089205 664.308 
L 253.089205 634.213845 
L 248.136136 634.213845 
z
" clip-path="url(#p1e5273c5b7)" style="fill: #4c72b0; fill-opacity: 0.5; stroke: #ffffff; stroke-width: 0.422727; stroke-linejoin: miter"/>
   </g>
   <g id="patch_34">
    <path d="M 253.089205 664.308 
L 258.042273 664.308 
L 258.042273 629.637315 
L 253.089205 629.637315 
z
" clip-path="url(#p1e5273c5b7)" style="fill: #4c72b0; fill-opacity: 0.5; stroke: #ffffff; stroke-width: 0.422727; stroke-linejoin: miter"/>
   </g>
   <g id="patch_35">
    <path d="M 258.042273 664.308 
L 262.995341 664.308 
L 262.995341 627.002342 
L 258.042273 627.002342 
z
" clip-path="url(#p1e5273c5b7)" style="fill: #4c72b0; fill-opacity: 0.5; stroke: #ffffff; stroke-width: 0.422727; stroke-linejoin: miter"/>
   </g>
   <g id="patch_36">
    <path d="M 262.995341 664.308 
L 267.948409 664.308 
L 267.948409 621.455033 
L 262.995341 621.455033 
z
" clip-path="url(#p1e5273c5b7)" style="fill: #4c72b0; fill-opacity: 0.5; stroke: #ffffff; stroke-width: 0.422727; stroke-linejoin: miter"/>
   </g>
   <g id="patch_37">
    <path d="M 267.948409 664.308 
L 272.901477 664.308 
L 272.901477 616.601137 
L 267.948409 616.601137 
z
" clip-path="url(#p1e5273c5b7)" style="fill: #4c72b0; fill-opacity: 0.5; stroke: #ffffff; stroke-width: 0.422727; stroke-linejoin: miter"/>
   </g>
   <g id="patch_38">
    <path d="M 272.901477 664.308 
L 277.854545 664.308 
L 277.854545 613.411434 
L 272.901477 613.411434 
z
" clip-path="url(#p1e5273c5b7)" style="fill: #4c72b0; fill-opacity: 0.5; stroke: #ffffff; stroke-width: 0.422727; stroke-linejoin: miter"/>
   </g>
   <g id="patch_39">
    <path d="M 277.854545 664.308 
L 282.807614 664.308 
L 282.807614 608.418855 
L 277.854545 608.418855 
z
" clip-path="url(#p1e5273c5b7)" style="fill: #4c72b0; fill-opacity: 0.5; stroke: #ffffff; stroke-width: 0.422727; stroke-linejoin: miter"/>
   </g>
   <g id="patch_40">
    <path d="M 282.807614 664.308 
L 287.760682 664.308 
L 287.760682 602.871545 
L 282.807614 602.871545 
z
" clip-path="url(#p1e5273c5b7)" style="fill: #4c72b0; fill-opacity: 0.5; stroke: #ffffff; stroke-width: 0.422727; stroke-linejoin: miter"/>
   </g>
   <g id="patch_41">
    <path d="M 287.760682 664.308 
L 292.71375 664.308 
L 292.71375 594.134533 
L 287.760682 594.134533 
z
" clip-path="url(#p1e5273c5b7)" style="fill: #4c72b0; fill-opacity: 0.5; stroke: #ffffff; stroke-width: 0.422727; stroke-linejoin: miter"/>
   </g>
   <g id="patch_42">
    <path d="M 292.71375 664.308 
L 297.666818 664.308 
L 297.666818 582.207817 
L 292.71375 582.207817 
z
" clip-path="url(#p1e5273c5b7)" style="fill: #4c72b0; fill-opacity: 0.5; stroke: #ffffff; stroke-width: 0.422727; stroke-linejoin: miter"/>
   </g>
   <g id="patch_43">
    <path d="M 297.666818 664.308 
L 302.619886 664.308 
L 302.619886 578.602065 
L 297.666818 578.602065 
z
" clip-path="url(#p1e5273c5b7)" style="fill: #4c72b0; fill-opacity: 0.5; stroke: #ffffff; stroke-width: 0.422727; stroke-linejoin: miter"/>
   </g>
   <g id="patch_44">
    <path d="M 302.619886 664.308 
L 307.572955 664.308 
L 307.572955 570.142418 
L 302.619886 570.142418 
z
" clip-path="url(#p1e5273c5b7)" style="fill: #4c72b0; fill-opacity: 0.5; stroke: #ffffff; stroke-width: 0.422727; stroke-linejoin: miter"/>
   </g>
   <g id="patch_45">
    <path d="M 307.572955 664.308 
L 312.526023 664.308 
L 312.526023 561.682771 
L 307.572955 561.682771 
z
" clip-path="url(#p1e5273c5b7)" style="fill: #4c72b0; fill-opacity: 0.5; stroke: #ffffff; stroke-width: 0.422727; stroke-linejoin: miter"/>
   </g>
   <g id="patch_46">
    <path d="M 312.526023 664.308 
L 317.479091 664.308 
L 317.479091 550.865517 
L 312.526023 550.865517 
z
" clip-path="url(#p1e5273c5b7)" style="fill: #4c72b0; fill-opacity: 0.5; stroke: #ffffff; stroke-width: 0.422727; stroke-linejoin: miter"/>
   </g>
   <g id="patch_47">
    <path d="M 317.479091 664.308 
L 322.432159 664.308 
L 322.432159 537.829339 
L 317.479091 537.829339 
z
" clip-path="url(#p1e5273c5b7)" style="fill: #4c72b0; fill-opacity: 0.5; stroke: #ffffff; stroke-width: 0.422727; stroke-linejoin: miter"/>
   </g>
   <g id="patch_48">
    <path d="M 322.432159 664.308 
L 327.385227 664.308 
L 327.385227 530.340471 
L 322.432159 530.340471 
z
" clip-path="url(#p1e5273c5b7)" style="fill: #4c72b0; fill-opacity: 0.5; stroke: #ffffff; stroke-width: 0.422727; stroke-linejoin: miter"/>
   </g>
   <g id="patch_49">
    <path d="M 327.385227 664.308 
L 332.338295 664.308 
L 332.338295 518.552438 
L 327.385227 518.552438 
z
" clip-path="url(#p1e5273c5b7)" style="fill: #4c72b0; fill-opacity: 0.5; stroke: #ffffff; stroke-width: 0.422727; stroke-linejoin: miter"/>
   </g>
   <g id="patch_50">
    <path d="M 332.338295 664.308 
L 337.291364 664.308 
L 337.291364 508.289915 
L 332.338295 508.289915 
z
" clip-path="url(#p1e5273c5b7)" style="fill: #4c72b0; fill-opacity: 0.5; stroke: #ffffff; stroke-width: 0.422727; stroke-linejoin: miter"/>
   </g>
   <g id="patch_51">
    <path d="M 337.291364 664.308 
L 342.244432 664.308 
L 342.244432 498.166075 
L 337.291364 498.166075 
z
" clip-path="url(#p1e5273c5b7)" style="fill: #4c72b0; fill-opacity: 0.5; stroke: #ffffff; stroke-width: 0.422727; stroke-linejoin: miter"/>
   </g>
   <g id="patch_52">
    <path d="M 342.244432 664.308 
L 347.1975 664.308 
L 347.1975 490.261159 
L 342.244432 490.261159 
z
" clip-path="url(#p1e5273c5b7)" style="fill: #4c72b0; fill-opacity: 0.5; stroke: #ffffff; stroke-width: 0.422727; stroke-linejoin: miter"/>
   </g>
   <g id="patch_53">
    <path d="M 347.1975 664.308 
L 352.150568 664.308 
L 352.150568 483.74307 
L 347.1975 483.74307 
z
" clip-path="url(#p1e5273c5b7)" style="fill: #4c72b0; fill-opacity: 0.5; stroke: #ffffff; stroke-width: 0.422727; stroke-linejoin: miter"/>
   </g>
   <g id="patch_54">
    <path d="M 352.150568 664.308 
L 357.103636 664.308 
L 357.103636 465.0209 
L 352.150568 465.0209 
z
" clip-path="url(#p1e5273c5b7)" style="fill: #4c72b0; fill-opacity: 0.5; stroke: #ffffff; stroke-width: 0.422727; stroke-linejoin: miter"/>
   </g>
   <g id="patch_55">
    <path d="M 357.103636 664.308 
L 362.056705 664.308 
L 362.056705 455.313108 
L 357.103636 455.313108 
z
" clip-path="url(#p1e5273c5b7)" style="fill: #4c72b0; fill-opacity: 0.5; stroke: #ffffff; stroke-width: 0.422727; stroke-linejoin: miter"/>
   </g>
   <g id="patch_56">
    <path d="M 362.056705 664.308 
L 367.009773 664.308 
L 367.009773 438.393813 
L 362.056705 438.393813 
z
" clip-path="url(#p1e5273c5b7)" style="fill: #4c72b0; fill-opacity: 0.5; stroke: #ffffff; stroke-width: 0.422727; stroke-linejoin: miter"/>
   </g>
   <g id="patch_57">
    <path d="M 367.009773 664.308 
L 371.962841 664.308 
L 371.962841 419.671643 
L 367.009773 419.671643 
z
" clip-path="url(#p1e5273c5b7)" style="fill: #4c72b0; fill-opacity: 0.5; stroke: #ffffff; stroke-width: 0.422727; stroke-linejoin: miter"/>
   </g>
   <g id="patch_58">
    <path d="M 371.962841 664.308 
L 376.915909 664.308 
L 376.915909 420.919788 
L 371.962841 420.919788 
z
" clip-path="url(#p1e5273c5b7)" style="fill: #4c72b0; fill-opacity: 0.5; stroke: #ffffff; stroke-width: 0.422727; stroke-linejoin: miter"/>
   </g>
   <g id="patch_59">
    <path d="M 376.915909 664.308 
L 381.868977 664.308 
L 381.868977 412.182775 
L 376.915909 412.182775 
z
" clip-path="url(#p1e5273c5b7)" style="fill: #4c72b0; fill-opacity: 0.5; stroke: #ffffff; stroke-width: 0.422727; stroke-linejoin: miter"/>
   </g>
   <g id="patch_60">
    <path d="M 381.868977 664.308 
L 386.822045 664.308 
L 386.822045 393.73797 
L 381.868977 393.73797 
z
" clip-path="url(#p1e5273c5b7)" style="fill: #4c72b0; fill-opacity: 0.5; stroke: #ffffff; stroke-width: 0.422727; stroke-linejoin: miter"/>
   </g>
   <g id="patch_61">
    <path d="M 386.822045 664.308 
L 391.775114 664.308 
L 391.775114 389.438805 
L 386.822045 389.438805 
z
" clip-path="url(#p1e5273c5b7)" style="fill: #4c72b0; fill-opacity: 0.5; stroke: #ffffff; stroke-width: 0.422727; stroke-linejoin: miter"/>
   </g>
   <g id="patch_62">
    <path d="M 391.775114 664.308 
L 396.728182 664.308 
L 396.728182 391.657729 
L 391.775114 391.657729 
z
" clip-path="url(#p1e5273c5b7)" style="fill: #4c72b0; fill-opacity: 0.5; stroke: #ffffff; stroke-width: 0.422727; stroke-linejoin: miter"/>
   </g>
   <g id="patch_63">
    <path d="M 396.728182 664.308 
L 401.68125 664.308 
L 401.68125 376.125262 
L 396.728182 376.125262 
z
" clip-path="url(#p1e5273c5b7)" style="fill: #4c72b0; fill-opacity: 0.5; stroke: #ffffff; stroke-width: 0.422727; stroke-linejoin: miter"/>
   </g>
   <g id="patch_64">
    <path d="M 401.68125 664.308 
L 406.634318 664.308 
L 406.634318 370.716635 
L 401.68125 370.716635 
z
" clip-path="url(#p1e5273c5b7)" style="fill: #4c72b0; fill-opacity: 0.5; stroke: #ffffff; stroke-width: 0.422727; stroke-linejoin: miter"/>
   </g>
   <g id="patch_65">
    <path d="M 406.634318 664.308 
L 411.587386 664.308 
L 411.587386 367.110884 
L 406.634318 367.110884 
z
" clip-path="url(#p1e5273c5b7)" style="fill: #4c72b0; fill-opacity: 0.5; stroke: #ffffff; stroke-width: 0.422727; stroke-linejoin: miter"/>
   </g>
   <g id="patch_66">
    <path d="M 411.587386 664.308 
L 416.540455 664.308 
L 416.540455 354.213389 
L 411.587386 354.213389 
z
" clip-path="url(#p1e5273c5b7)" style="fill: #4c72b0; fill-opacity: 0.5; stroke: #ffffff; stroke-width: 0.422727; stroke-linejoin: miter"/>
   </g>
   <g id="patch_67">
    <path d="M 416.540455 664.308 
L 421.493523 664.308 
L 421.493523 358.235188 
L 416.540455 358.235188 
z
" clip-path="url(#p1e5273c5b7)" style="fill: #4c72b0; fill-opacity: 0.5; stroke: #ffffff; stroke-width: 0.422727; stroke-linejoin: miter"/>
   </g>
   <g id="patch_68">
    <path d="M 421.493523 664.308 
L 426.446591 664.308 
L 426.446591 350.191589 
L 421.493523 350.191589 
z
" clip-path="url(#p1e5273c5b7)" style="fill: #4c72b0; fill-opacity: 0.5; stroke: #ffffff; stroke-width: 0.422727; stroke-linejoin: miter"/>
   </g>
   <g id="patch_69">
    <path d="M 426.446591 664.308 
L 431.399659 664.308 
L 431.399659 347.556617 
L 426.446591 347.556617 
z
" clip-path="url(#p1e5273c5b7)" style="fill: #4c72b0; fill-opacity: 0.5; stroke: #ffffff; stroke-width: 0.422727; stroke-linejoin: miter"/>
   </g>
   <g id="patch_70">
    <path d="M 431.399659 664.308 
L 436.352727 664.308 
L 436.352727 338.126191 
L 431.399659 338.126191 
z
" clip-path="url(#p1e5273c5b7)" style="fill: #4c72b0; fill-opacity: 0.5; stroke: #ffffff; stroke-width: 0.422727; stroke-linejoin: miter"/>
   </g>
   <g id="patch_71">
    <path d="M 436.352727 664.308 
L 441.305795 664.308 
L 441.305795 347.001886 
L 436.352727 347.001886 
z
" clip-path="url(#p1e5273c5b7)" style="fill: #4c72b0; fill-opacity: 0.5; stroke: #ffffff; stroke-width: 0.422727; stroke-linejoin: miter"/>
   </g>
   <g id="patch_72">
    <path d="M 441.305795 664.308 
L 446.258864 664.308 
L 446.258864 342.841404 
L 441.305795 342.841404 
z
" clip-path="url(#p1e5273c5b7)" style="fill: #4c72b0; fill-opacity: 0.5; stroke: #ffffff; stroke-width: 0.422727; stroke-linejoin: miter"/>
   </g>
   <g id="patch_73">
    <path d="M 446.258864 664.308 
L 451.211932 664.308 
L 451.211932 351.578417 
L 446.258864 351.578417 
z
" clip-path="url(#p1e5273c5b7)" style="fill: #4c72b0; fill-opacity: 0.5; stroke: #ffffff; stroke-width: 0.422727; stroke-linejoin: miter"/>
   </g>
   <g id="patch_74">
    <path d="M 451.211932 664.308 
L 456.165 664.308 
L 456.165 351.855782 
L 451.211932 351.855782 
z
" clip-path="url(#p1e5273c5b7)" style="fill: #4c72b0; fill-opacity: 0.5; stroke: #ffffff; stroke-width: 0.422727; stroke-linejoin: miter"/>
   </g>
   <g id="patch_75">
    <path d="M 456.165 664.308 
L 461.118068 664.308 
L 461.118068 346.585838 
L 456.165 346.585838 
z
" clip-path="url(#p1e5273c5b7)" style="fill: #4c72b0; fill-opacity: 0.5; stroke: #ffffff; stroke-width: 0.422727; stroke-linejoin: miter"/>
   </g>
   <g id="patch_76">
    <path d="M 461.118068 664.308 
L 466.071136 664.308 
L 466.071136 353.936023 
L 461.118068 353.936023 
z
" clip-path="url(#p1e5273c5b7)" style="fill: #4c72b0; fill-opacity: 0.5; stroke: #ffffff; stroke-width: 0.422727; stroke-linejoin: miter"/>
   </g>
   <g id="patch_77">
    <path d="M 466.071136 664.308 
L 471.024205 664.308 
L 471.024205 370.855318 
L 466.071136 370.855318 
z
" clip-path="url(#p1e5273c5b7)" style="fill: #4c72b0; fill-opacity: 0.5; stroke: #ffffff; stroke-width: 0.422727; stroke-linejoin: miter"/>
   </g>
   <g id="patch_78">
    <path d="M 471.024205 664.308 
L 475.977273 664.308 
L 475.977273 360.176747 
L 471.024205 360.176747 
z
" clip-path="url(#p1e5273c5b7)" style="fill: #4c72b0; fill-opacity: 0.5; stroke: #ffffff; stroke-width: 0.422727; stroke-linejoin: miter"/>
   </g>
   <g id="patch_79">
    <path d="M 475.977273 664.308 
L 480.930341 664.308 
L 480.930341 372.519511 
L 475.977273 372.519511 
z
" clip-path="url(#p1e5273c5b7)" style="fill: #4c72b0; fill-opacity: 0.5; stroke: #ffffff; stroke-width: 0.422727; stroke-linejoin: miter"/>
   </g>
   <g id="patch_80">
    <path d="M 480.930341 664.308 
L 485.883409 664.308 
L 485.883409 393.321922 
L 480.930341 393.321922 
z
" clip-path="url(#p1e5273c5b7)" style="fill: #4c72b0; fill-opacity: 0.5; stroke: #ffffff; stroke-width: 0.422727; stroke-linejoin: miter"/>
   </g>
   <g id="patch_81">
    <path d="M 485.883409 664.308 
L 490.836477 664.308 
L 490.836477 390.132219 
L 485.883409 390.132219 
z
" clip-path="url(#p1e5273c5b7)" style="fill: #4c72b0; fill-opacity: 0.5; stroke: #ffffff; stroke-width: 0.422727; stroke-linejoin: miter"/>
   </g>
   <g id="patch_82">
    <path d="M 490.836477 664.308 
L 495.789545 664.308 
L 495.789545 410.795948 
L 490.836477 410.795948 
z
" clip-path="url(#p1e5273c5b7)" style="fill: #4c72b0; fill-opacity: 0.5; stroke: #ffffff; stroke-width: 0.422727; stroke-linejoin: miter"/>
   </g>
   <g id="patch_83">
    <path d="M 495.789545 664.308 
L 500.742614 664.308 
L 500.742614 411.211996 
L 495.789545 411.211996 
z
" clip-path="url(#p1e5273c5b7)" style="fill: #4c72b0; fill-opacity: 0.5; stroke: #ffffff; stroke-width: 0.422727; stroke-linejoin: miter"/>
   </g>
   <g id="patch_84">
    <path d="M 500.742614 664.308 
L 505.695682 664.308 
L 505.695682 431.459676 
L 500.742614 431.459676 
z
" clip-path="url(#p1e5273c5b7)" style="fill: #4c72b0; fill-opacity: 0.5; stroke: #ffffff; stroke-width: 0.422727; stroke-linejoin: miter"/>
   </g>
   <g id="patch_85">
    <path d="M 505.695682 664.308 
L 510.64875 664.308 
L 510.64875 439.22591 
L 505.695682 439.22591 
z
" clip-path="url(#p1e5273c5b7)" style="fill: #4c72b0; fill-opacity: 0.5; stroke: #ffffff; stroke-width: 0.422727; stroke-linejoin: miter"/>
   </g>
   <g id="patch_86">
    <path d="M 510.64875 664.308 
L 515.601818 664.308 
L 515.601818 447.685557 
L 510.64875 447.685557 
z
" clip-path="url(#p1e5273c5b7)" style="fill: #4c72b0; fill-opacity: 0.5; stroke: #ffffff; stroke-width: 0.422727; stroke-linejoin: miter"/>
   </g>
   <g id="patch_87">
    <path d="M 515.601818 664.308 
L 520.554886 664.308 
L 520.554886 455.590473 
L 515.601818 455.590473 
z
" clip-path="url(#p1e5273c5b7)" style="fill: #4c72b0; fill-opacity: 0.5; stroke: #ffffff; stroke-width: 0.422727; stroke-linejoin: miter"/>
   </g>
   <g id="patch_88">
    <path d="M 520.554886 664.308 
L 525.507955 664.308 
L 525.507955 460.583052 
L 520.554886 460.583052 
z
" clip-path="url(#p1e5273c5b7)" style="fill: #4c72b0; fill-opacity: 0.5; stroke: #ffffff; stroke-width: 0.422727; stroke-linejoin: miter"/>
   </g>
   <g id="patch_89">
    <path d="M 525.507955 664.308 
L 530.461023 664.308 
L 530.461023 487.210139 
L 525.507955 487.210139 
z
" clip-path="url(#p1e5273c5b7)" style="fill: #4c72b0; fill-opacity: 0.5; stroke: #ffffff; stroke-width: 0.422727; stroke-linejoin: miter"/>
   </g>
   <g id="patch_90">
    <path d="M 530.461023 664.308 
L 535.414091 664.308 
L 535.414091 496.363199 
L 530.461023 496.363199 
z
" clip-path="url(#p1e5273c5b7)" style="fill: #4c72b0; fill-opacity: 0.5; stroke: #ffffff; stroke-width: 0.422727; stroke-linejoin: miter"/>
   </g>
   <g id="patch_91">
    <path d="M 535.414091 664.308 
L 540.367159 664.308 
L 540.367159 494.005593 
L 535.414091 494.005593 
z
" clip-path="url(#p1e5273c5b7)" style="fill: #4c72b0; fill-opacity: 0.5; stroke: #ffffff; stroke-width: 0.422727; stroke-linejoin: miter"/>
   </g>
   <g id="patch_92">
    <path d="M 540.367159 664.308 
L 545.320227 664.308 
L 545.320227 519.939266 
L 540.367159 519.939266 
z
" clip-path="url(#p1e5273c5b7)" style="fill: #4c72b0; fill-opacity: 0.5; stroke: #ffffff; stroke-width: 0.422727; stroke-linejoin: miter"/>
   </g>
   <g id="patch_93">
    <path d="M 545.320227 664.308 
L 550.273295 664.308 
L 550.273295 524.099748 
L 545.320227 524.099748 
z
" clip-path="url(#p1e5273c5b7)" style="fill: #4c72b0; fill-opacity: 0.5; stroke: #ffffff; stroke-width: 0.422727; stroke-linejoin: miter"/>
   </g>
   <g id="patch_94">
    <path d="M 550.273295 664.308 
L 555.226364 664.308 
L 555.226364 535.749098 
L 550.273295 535.749098 
z
" clip-path="url(#p1e5273c5b7)" style="fill: #4c72b0; fill-opacity: 0.5; stroke: #ffffff; stroke-width: 0.422727; stroke-linejoin: miter"/>
   </g>
   <g id="patch_95">
    <path d="M 555.226364 664.308 
L 560.179432 664.308 
L 560.179432 541.435091 
L 555.226364 541.435091 
z
" clip-path="url(#p1e5273c5b7)" style="fill: #4c72b0; fill-opacity: 0.5; stroke: #ffffff; stroke-width: 0.422727; stroke-linejoin: miter"/>
   </g>
   <g id="patch_96">
    <path d="M 560.179432 664.308 
L 565.1325 664.308 
L 565.1325 552.807075 
L 560.179432 552.807075 
z
" clip-path="url(#p1e5273c5b7)" style="fill: #4c72b0; fill-opacity: 0.5; stroke: #ffffff; stroke-width: 0.422727; stroke-linejoin: miter"/>
   </g>
   <g id="patch_97">
    <path d="M 565.1325 664.308 
L 570.085568 664.308 
L 570.085568 562.792233 
L 565.1325 562.792233 
z
" clip-path="url(#p1e5273c5b7)" style="fill: #4c72b0; fill-opacity: 0.5; stroke: #ffffff; stroke-width: 0.422727; stroke-linejoin: miter"/>
   </g>
   <g id="patch_98">
    <path d="M 570.085568 664.308 
L 575.038636 664.308 
L 575.038636 570.003735 
L 570.085568 570.003735 
z
" clip-path="url(#p1e5273c5b7)" style="fill: #4c72b0; fill-opacity: 0.5; stroke: #ffffff; stroke-width: 0.422727; stroke-linejoin: miter"/>
   </g>
   <g id="patch_99">
    <path d="M 575.038636 664.308 
L 579.991705 664.308 
L 579.991705 585.120154 
L 575.038636 585.120154 
z
" clip-path="url(#p1e5273c5b7)" style="fill: #4c72b0; fill-opacity: 0.5; stroke: #ffffff; stroke-width: 0.422727; stroke-linejoin: miter"/>
   </g>
   <g id="patch_100">
    <path d="M 579.991705 664.308 
L 584.944773 664.308 
L 584.944773 583.733327 
L 579.991705 583.733327 
z
" clip-path="url(#p1e5273c5b7)" style="fill: #4c72b0; fill-opacity: 0.5; stroke: #ffffff; stroke-width: 0.422727; stroke-linejoin: miter"/>
   </g>
   <g id="patch_101">
    <path d="M 584.944773 664.308 
L 589.897841 664.308 
L 589.897841 597.185553 
L 584.944773 597.185553 
z
" clip-path="url(#p1e5273c5b7)" style="fill: #4c72b0; fill-opacity: 0.5; stroke: #ffffff; stroke-width: 0.422727; stroke-linejoin: miter"/>
   </g>
   <g id="patch_102">
    <path d="M 589.897841 664.308 
L 594.850909 664.308 
L 594.850909 602.178132 
L 589.897841 602.178132 
z
" clip-path="url(#p1e5273c5b7)" style="fill: #4c72b0; fill-opacity: 0.5; stroke: #ffffff; stroke-width: 0.422727; stroke-linejoin: miter"/>
   </g>
   <g id="patch_103">
    <path d="M 594.850909 664.308 
L 599.803977 664.308 
L 599.803977 603.426276 
L 594.850909 603.426276 
z
" clip-path="url(#p1e5273c5b7)" style="fill: #4c72b0; fill-opacity: 0.5; stroke: #ffffff; stroke-width: 0.422727; stroke-linejoin: miter"/>
   </g>
   <g id="patch_104">
    <path d="M 599.803977 664.308 
L 604.757045 664.308 
L 604.757045 617.571916 
L 599.803977 617.571916 
z
" clip-path="url(#p1e5273c5b7)" style="fill: #4c72b0; fill-opacity: 0.5; stroke: #ffffff; stroke-width: 0.422727; stroke-linejoin: miter"/>
   </g>
   <g id="patch_105">
    <path d="M 604.757045 664.308 
L 609.710114 664.308 
L 609.710114 618.26533 
L 604.757045 618.26533 
z
" clip-path="url(#p1e5273c5b7)" style="fill: #4c72b0; fill-opacity: 0.5; stroke: #ffffff; stroke-width: 0.422727; stroke-linejoin: miter"/>
   </g>
   <g id="patch_106">
    <path d="M 609.710114 664.308 
L 614.663182 664.308 
L 614.663182 622.564495 
L 609.710114 622.564495 
z
" clip-path="url(#p1e5273c5b7)" style="fill: #4c72b0; fill-opacity: 0.5; stroke: #ffffff; stroke-width: 0.422727; stroke-linejoin: miter"/>
   </g>
   <g id="patch_107">
    <path d="M 614.663182 664.308 
L 619.61625 664.308 
L 619.61625 628.38917 
L 614.663182 628.38917 
z
" clip-path="url(#p1e5273c5b7)" style="fill: #4c72b0; fill-opacity: 0.5; stroke: #ffffff; stroke-width: 0.422727; stroke-linejoin: miter"/>
   </g>
   <g id="patch_108">
    <path d="M 619.61625 664.308 
L 624.569318 664.308 
L 624.569318 631.44019 
L 619.61625 631.44019 
z
" clip-path="url(#p1e5273c5b7)" style="fill: #4c72b0; fill-opacity: 0.5; stroke: #ffffff; stroke-width: 0.422727; stroke-linejoin: miter"/>
   </g>
   <g id="patch_109">
    <path d="M 624.569318 664.308 
L 629.522386 664.308 
L 629.522386 635.46199 
L 624.569318 635.46199 
z
" clip-path="url(#p1e5273c5b7)" style="fill: #4c72b0; fill-opacity: 0.5; stroke: #ffffff; stroke-width: 0.422727; stroke-linejoin: miter"/>
   </g>
   <g id="patch_110">
    <path d="M 629.522386 664.308 
L 634.475455 664.308 
L 634.475455 637.403548 
L 629.522386 637.403548 
z
" clip-path="url(#p1e5273c5b7)" style="fill: #4c72b0; fill-opacity: 0.5; stroke: #ffffff; stroke-width: 0.422727; stroke-linejoin: miter"/>
   </g>
   <g id="patch_111">
    <path d="M 634.475455 664.308 
L 639.428523 664.308 
L 639.428523 641.841396 
L 634.475455 641.841396 
z
" clip-path="url(#p1e5273c5b7)" style="fill: #4c72b0; fill-opacity: 0.5; stroke: #ffffff; stroke-width: 0.422727; stroke-linejoin: miter"/>
   </g>
   <g id="patch_112">
    <path d="M 639.428523 664.308 
L 644.381591 664.308 
L 644.381591 642.257444 
L 639.428523 642.257444 
z
" clip-path="url(#p1e5273c5b7)" style="fill: #4c72b0; fill-opacity: 0.5; stroke: #ffffff; stroke-width: 0.422727; stroke-linejoin: miter"/>
   </g>
   <g id="patch_113">
    <path d="M 644.381591 664.308 
L 649.334659 664.308 
L 649.334659 648.63685 
L 644.381591 648.63685 
z
" clip-path="url(#p1e5273c5b7)" style="fill: #4c72b0; fill-opacity: 0.5; stroke: #ffffff; stroke-width: 0.422727; stroke-linejoin: miter"/>
   </g>
   <g id="patch_114">
    <path d="M 649.334659 664.308 
L 654.287727 664.308 
L 654.287727 648.775533 
L 649.334659 648.775533 
z
" clip-path="url(#p1e5273c5b7)" style="fill: #4c72b0; fill-opacity: 0.5; stroke: #ffffff; stroke-width: 0.422727; stroke-linejoin: miter"/>
   </g>
   <g id="patch_115">
    <path d="M 654.287727 664.308 
L 659.240795 664.308 
L 659.240795 651.68787 
L 654.287727 651.68787 
z
" clip-path="url(#p1e5273c5b7)" style="fill: #4c72b0; fill-opacity: 0.5; stroke: #ffffff; stroke-width: 0.422727; stroke-linejoin: miter"/>
   </g>
   <g id="patch_116">
    <path d="M 659.240795 664.308 
L 664.193864 664.308 
L 664.193864 653.490746 
L 659.240795 653.490746 
z
" clip-path="url(#p1e5273c5b7)" style="fill: #4c72b0; fill-opacity: 0.5; stroke: #ffffff; stroke-width: 0.422727; stroke-linejoin: miter"/>
   </g>
   <g id="patch_117">
    <path d="M 664.193864 664.308 
L 669.146932 664.308 
L 669.146932 652.65865 
L 664.193864 652.65865 
z
" clip-path="url(#p1e5273c5b7)" style="fill: #4c72b0; fill-opacity: 0.5; stroke: #ffffff; stroke-width: 0.422727; stroke-linejoin: miter"/>
   </g>
   <g id="patch_118">
    <path d="M 669.146932 664.308 
L 674.1 664.308 
L 674.1 655.70967 
L 669.146932 655.70967 
z
" clip-path="url(#p1e5273c5b7)" style="fill: #4c72b0; fill-opacity: 0.5; stroke: #ffffff; stroke-width: 0.422727; stroke-linejoin: miter"/>
   </g>
   <g id="patch_119">
    <path d="M 674.1 664.308 
L 679.053068 664.308 
L 679.053068 657.512546 
L 674.1 657.512546 
z
" clip-path="url(#p1e5273c5b7)" style="fill: #4c72b0; fill-opacity: 0.5; stroke: #ffffff; stroke-width: 0.422727; stroke-linejoin: miter"/>
   </g>
   <g id="patch_120">
    <path d="M 679.053068 664.308 
L 684.006136 664.308 
L 684.006136 657.23518 
L 679.053068 657.23518 
z
" clip-path="url(#p1e5273c5b7)" style="fill: #4c72b0; fill-opacity: 0.5; stroke: #ffffff; stroke-width: 0.422727; stroke-linejoin: miter"/>
   </g>
   <g id="patch_121">
    <path d="M 684.006136 664.308 
L 688.959205 664.308 
L 688.959205 659.315421 
L 684.006136 659.315421 
z
" clip-path="url(#p1e5273c5b7)" style="fill: #4c72b0; fill-opacity: 0.5; stroke: #ffffff; stroke-width: 0.422727; stroke-linejoin: miter"/>
   </g>
   <g id="patch_122">
    <path d="M 688.959205 664.308 
L 693.912273 664.308 
L 693.912273 660.008835 
L 688.959205 660.008835 
z
" clip-path="url(#p1e5273c5b7)" style="fill: #4c72b0; fill-opacity: 0.5; stroke: #ffffff; stroke-width: 0.422727; stroke-linejoin: miter"/>
   </g>
   <g id="patch_123">
    <path d="M 693.912273 664.308 
L 698.865341 664.308 
L 698.865341 660.702249 
L 693.912273 660.702249 
z
" clip-path="url(#p1e5273c5b7)" style="fill: #4c72b0; fill-opacity: 0.5; stroke: #ffffff; stroke-width: 0.422727; stroke-linejoin: miter"/>
   </g>
   <g id="patch_124">
    <path d="M 698.865341 664.308 
L 703.818409 664.308 
L 703.818409 661.118297 
L 698.865341 661.118297 
z
" clip-path="url(#p1e5273c5b7)" style="fill: #4c72b0; fill-opacity: 0.5; stroke: #ffffff; stroke-width: 0.422727; stroke-linejoin: miter"/>
   </g>
   <g id="patch_125">
    <path d="M 703.818409 664.308 
L 708.771477 664.308 
L 708.771477 662.78249 
L 703.818409 662.78249 
z
" clip-path="url(#p1e5273c5b7)" style="fill: #4c72b0; fill-opacity: 0.5; stroke: #ffffff; stroke-width: 0.422727; stroke-linejoin: miter"/>
   </g>
   <g id="patch_126">
    <path d="M 708.771477 664.308 
L 713.724545 664.308 
L 713.724545 662.366442 
L 708.771477 662.366442 
z
" clip-path="url(#p1e5273c5b7)" style="fill: #4c72b0; fill-opacity: 0.5; stroke: #ffffff; stroke-width: 0.422727; stroke-linejoin: miter"/>
   </g>
   <g id="patch_127">
    <path d="M 713.724545 664.308 
L 718.677614 664.308 
L 718.677614 662.643807 
L 713.724545 662.643807 
z
" clip-path="url(#p1e5273c5b7)" style="fill: #4c72b0; fill-opacity: 0.5; stroke: #ffffff; stroke-width: 0.422727; stroke-linejoin: miter"/>
   </g>
   <g id="patch_128">
    <path d="M 718.677614 664.308 
L 723.630682 664.308 
L 723.630682 663.475904 
L 718.677614 663.475904 
z
" clip-path="url(#p1e5273c5b7)" style="fill: #4c72b0; fill-opacity: 0.5; stroke: #ffffff; stroke-width: 0.422727; stroke-linejoin: miter"/>
   </g>
   <g id="patch_129">
    <path d="M 723.630682 664.308 
L 728.58375 664.308 
L 728.58375 663.614586 
L 723.630682 663.614586 
z
" clip-path="url(#p1e5273c5b7)" style="fill: #4c72b0; fill-opacity: 0.5; stroke: #ffffff; stroke-width: 0.422727; stroke-linejoin: miter"/>
   </g>
   <g id="patch_130">
    <path d="M 728.58375 664.308 
L 733.536818 664.308 
L 733.536818 663.337221 
L 728.58375 663.337221 
z
" clip-path="url(#p1e5273c5b7)" style="fill: #4c72b0; fill-opacity: 0.5; stroke: #ffffff; stroke-width: 0.422727; stroke-linejoin: miter"/>
   </g>
   <g id="patch_131">
    <path d="M 733.536818 664.308 
L 738.489886 664.308 
L 738.489886 663.059855 
L 733.536818 663.059855 
z
" clip-path="url(#p1e5273c5b7)" style="fill: #4c72b0; fill-opacity: 0.5; stroke: #ffffff; stroke-width: 0.422727; stroke-linejoin: miter"/>
   </g>
   <g id="patch_132">
    <path d="M 738.489886 664.308 
L 743.442955 664.308 
L 743.442955 664.030635 
L 738.489886 664.030635 
z
" clip-path="url(#p1e5273c5b7)" style="fill: #4c72b0; fill-opacity: 0.5; stroke: #ffffff; stroke-width: 0.422727; stroke-linejoin: miter"/>
   </g>
   <g id="patch_133">
    <path d="M 743.442955 664.308 
L 748.396023 664.308 
L 748.396023 664.030635 
L 743.442955 664.030635 
z
" clip-path="url(#p1e5273c5b7)" style="fill: #4c72b0; fill-opacity: 0.5; stroke: #ffffff; stroke-width: 0.422727; stroke-linejoin: miter"/>
   </g>
   <g id="patch_134">
    <path d="M 748.396023 664.308 
L 753.349091 664.308 
L 753.349091 664.030635 
L 748.396023 664.030635 
z
" clip-path="url(#p1e5273c5b7)" style="fill: #4c72b0; fill-opacity: 0.5; stroke: #ffffff; stroke-width: 0.422727; stroke-linejoin: miter"/>
   </g>
   <g id="patch_135">
    <path d="M 753.349091 664.308 
L 758.302159 664.308 
L 758.302159 663.753269 
L 753.349091 663.753269 
z
" clip-path="url(#p1e5273c5b7)" style="fill: #4c72b0; fill-opacity: 0.5; stroke: #ffffff; stroke-width: 0.422727; stroke-linejoin: miter"/>
   </g>
   <g id="patch_136">
    <path d="M 758.302159 664.308 
L 763.255227 664.308 
L 763.255227 663.891952 
L 758.302159 663.891952 
z
" clip-path="url(#p1e5273c5b7)" style="fill: #4c72b0; fill-opacity: 0.5; stroke: #ffffff; stroke-width: 0.422727; stroke-linejoin: miter"/>
   </g>
   <g id="patch_137">
    <path d="M 763.255227 664.308 
L 768.208295 664.308 
L 768.208295 664.308 
L 763.255227 664.308 
z
" clip-path="url(#p1e5273c5b7)" style="fill: #4c72b0; fill-opacity: 0.5; stroke: #ffffff; stroke-width: 0.422727; stroke-linejoin: miter"/>
   </g>
   <g id="patch_138">
    <path d="M 768.208295 664.308 
L 773.161364 664.308 
L 773.161364 664.169317 
L 768.208295 664.169317 
z
" clip-path="url(#p1e5273c5b7)" style="fill: #4c72b0; fill-opacity: 0.5; stroke: #ffffff; stroke-width: 0.422727; stroke-linejoin: miter"/>
   </g>
   <g id="patch_139">
    <path d="M 773.161364 664.308 
L 778.114432 664.308 
L 778.114432 663.891952 
L 773.161364 663.891952 
z
" clip-path="url(#p1e5273c5b7)" style="fill: #4c72b0; fill-opacity: 0.5; stroke: #ffffff; stroke-width: 0.422727; stroke-linejoin: miter"/>
   </g>
   <g id="patch_140">
    <path d="M 778.114432 664.308 
L 783.0675 664.308 
L 783.0675 664.169317 
L 778.114432 664.169317 
z
" clip-path="url(#p1e5273c5b7)" style="fill: #4c72b0; fill-opacity: 0.5; stroke: #ffffff; stroke-width: 0.422727; stroke-linejoin: miter"/>
   </g>
   <g id="patch_141">
    <path d="M 783.0675 664.308 
L 788.020568 664.308 
L 788.020568 664.308 
L 783.0675 664.308 
z
" clip-path="url(#p1e5273c5b7)" style="fill: #4c72b0; fill-opacity: 0.5; stroke: #ffffff; stroke-width: 0.422727; stroke-linejoin: miter"/>
   </g>
   <g id="patch_142">
    <path d="M 788.020568 664.308 
L 792.973636 664.308 
L 792.973636 664.030635 
L 788.020568 664.030635 
z
" clip-path="url(#p1e5273c5b7)" style="fill: #4c72b0; fill-opacity: 0.5; stroke: #ffffff; stroke-width: 0.422727; stroke-linejoin: miter"/>
   </g>
   <g id="patch_143">
    <path d="M 792.973636 664.308 
L 797.926705 664.308 
L 797.926705 664.308 
L 792.973636 664.308 
z
" clip-path="url(#p1e5273c5b7)" style="fill: #4c72b0; fill-opacity: 0.5; stroke: #ffffff; stroke-width: 0.422727; stroke-linejoin: miter"/>
   </g>
   <g id="patch_144">
    <path d="M 797.926705 664.308 
L 802.879773 664.308 
L 802.879773 664.308 
L 797.926705 664.308 
z
" clip-path="url(#p1e5273c5b7)" style="fill: #4c72b0; fill-opacity: 0.5; stroke: #ffffff; stroke-width: 0.422727; stroke-linejoin: miter"/>
   </g>
   <g id="patch_145">
    <path d="M 802.879773 664.308 
L 807.832841 664.308 
L 807.832841 664.169317 
L 802.879773 664.169317 
z
" clip-path="url(#p1e5273c5b7)" style="fill: #4c72b0; fill-opacity: 0.5; stroke: #ffffff; stroke-width: 0.422727; stroke-linejoin: miter"/>
   </g>
   <g id="patch_146">
    <path d="M 807.832841 664.308 
L 812.785909 664.308 
L 812.785909 664.169317 
L 807.832841 664.169317 
z
" clip-path="url(#p1e5273c5b7)" style="fill: #4c72b0; fill-opacity: 0.5; stroke: #ffffff; stroke-width: 0.422727; stroke-linejoin: miter"/>
   </g>
   <g id="patch_147">
    <path d="M 353.004088 664.308 
L 357.281676 664.308 
L 357.281676 112.707704 
L 353.004088 112.707704 
z
" clip-path="url(#p1e5273c5b7)" style="fill: #dd8452; fill-opacity: 0.5; stroke: #ffffff; stroke-width: 0.365077; stroke-linejoin: miter"/>
   </g>
   <g id="patch_148">
    <path d="M 357.281676 664.308 
L 361.559264 664.308 
L 361.559264 74.970857 
L 357.281676 74.970857 
z
" clip-path="url(#p1e5273c5b7)" style="fill: #dd8452; fill-opacity: 0.5; stroke: #ffffff; stroke-width: 0.365077; stroke-linejoin: miter"/>
   </g>
   <g id="patch_149">
    <path d="M 361.559264 664.308 
L 365.836853 664.308 
L 365.836853 112.38654 
L 361.559264 112.38654 
z
" clip-path="url(#p1e5273c5b7)" style="fill: #dd8452; fill-opacity: 0.5; stroke: #ffffff; stroke-width: 0.365077; stroke-linejoin: miter"/>
   </g>
   <g id="patch_150">
    <path d="M 365.836853 664.308 
L 370.114441 664.308 
L 370.114441 152.532121 
L 365.836853 152.532121 
z
" clip-path="url(#p1e5273c5b7)" style="fill: #dd8452; fill-opacity: 0.5; stroke: #ffffff; stroke-width: 0.365077; stroke-linejoin: miter"/>
   </g>
   <g id="patch_151">
    <path d="M 370.114441 664.308 
L 374.392029 664.308 
L 374.392029 204.400213 
L 370.114441 204.400213 
z
" clip-path="url(#p1e5273c5b7)" style="fill: #dd8452; fill-opacity: 0.5; stroke: #ffffff; stroke-width: 0.365077; stroke-linejoin: miter"/>
   </g>
   <g id="patch_152">
    <path d="M 374.392029 664.308 
L 378.669617 664.308 
L 378.669617 218.531458 
L 374.392029 218.531458 
z
" clip-path="url(#p1e5273c5b7)" style="fill: #dd8452; fill-opacity: 0.5; stroke: #ffffff; stroke-width: 0.365077; stroke-linejoin: miter"/>
   </g>
   <g id="patch_153">
    <path d="M 378.669617 664.308 
L 382.947206 664.308 
L 382.947206 226.560575 
L 378.669617 226.560575 
z
" clip-path="url(#p1e5273c5b7)" style="fill: #dd8452; fill-opacity: 0.5; stroke: #ffffff; stroke-width: 0.365077; stroke-linejoin: miter"/>
   </g>
   <g id="patch_154">
    <path d="M 382.947206 664.308 
L 387.224794 664.308 
L 387.224794 257.874128 
L 382.947206 257.874128 
z
" clip-path="url(#p1e5273c5b7)" style="fill: #dd8452; fill-opacity: 0.5; stroke: #ffffff; stroke-width: 0.365077; stroke-linejoin: miter"/>
   </g>
   <g id="patch_155">
    <path d="M 387.224794 664.308 
L 391.502382 664.308 
L 391.502382 271.523626 
L 387.224794 271.523626 
z
" clip-path="url(#p1e5273c5b7)" style="fill: #dd8452; fill-opacity: 0.5; stroke: #ffffff; stroke-width: 0.365077; stroke-linejoin: miter"/>
   </g>
   <g id="patch_156">
    <path d="M 391.502382 664.308 
L 395.77997 664.308 
L 395.77997 284.530795 
L 391.502382 284.530795 
z
" clip-path="url(#p1e5273c5b7)" style="fill: #dd8452; fill-opacity: 0.5; stroke: #ffffff; stroke-width: 0.365077; stroke-linejoin: miter"/>
   </g>
   <g id="patch_157">
    <path d="M 395.77997 664.308 
L 400.057559 664.308 
L 400.057559 309.581638 
L 395.77997 309.581638 
z
" clip-path="url(#p1e5273c5b7)" style="fill: #dd8452; fill-opacity: 0.5; stroke: #ffffff; stroke-width: 0.365077; stroke-linejoin: miter"/>
   </g>
   <g id="patch_158">
    <path d="M 400.057559 664.308 
L 404.335147 664.308 
L 404.335147 308.296979 
L 400.057559 308.296979 
z
" clip-path="url(#p1e5273c5b7)" style="fill: #dd8452; fill-opacity: 0.5; stroke: #ffffff; stroke-width: 0.365077; stroke-linejoin: miter"/>
   </g>
   <g id="patch_159">
    <path d="M 404.335147 664.308 
L 408.612735 664.308 
L 408.612735 324.997541 
L 404.335147 324.997541 
z
" clip-path="url(#p1e5273c5b7)" style="fill: #dd8452; fill-opacity: 0.5; stroke: #ffffff; stroke-width: 0.365077; stroke-linejoin: miter"/>
   </g>
   <g id="patch_160">
    <path d="M 408.612735 664.308 
L 412.890323 664.308 
L 412.890323 329.333264 
L 408.612735 329.333264 
z
" clip-path="url(#p1e5273c5b7)" style="fill: #dd8452; fill-opacity: 0.5; stroke: #ffffff; stroke-width: 0.365077; stroke-linejoin: miter"/>
   </g>
   <g id="patch_161">
    <path d="M 412.890323 664.308 
L 417.167912 664.308 
L 417.167912 330.617923 
L 412.890323 330.617923 
z
" clip-path="url(#p1e5273c5b7)" style="fill: #dd8452; fill-opacity: 0.5; stroke: #ffffff; stroke-width: 0.365077; stroke-linejoin: miter"/>
   </g>
   <g id="patch_162">
    <path d="M 417.167912 664.308 
L 421.4455 664.308 
L 421.4455 341.858686 
L 417.167912 341.858686 
z
" clip-path="url(#p1e5273c5b7)" style="fill: #dd8452; fill-opacity: 0.5; stroke: #ffffff; stroke-width: 0.365077; stroke-linejoin: miter"/>
   </g>
   <g id="patch_163">
    <path d="M 421.4455 664.308 
L 425.723088 664.308 
L 425.723088 341.858686 
L 421.4455 341.858686 
z
" clip-path="url(#p1e5273c5b7)" style="fill: #dd8452; fill-opacity: 0.5; stroke: #ffffff; stroke-width: 0.365077; stroke-linejoin: miter"/>
   </g>
   <g id="patch_164">
    <path d="M 425.723088 664.308 
L 430.000676 664.308 
L 430.000676 339.128786 
L 425.723088 339.128786 
z
" clip-path="url(#p1e5273c5b7)" style="fill: #dd8452; fill-opacity: 0.5; stroke: #ffffff; stroke-width: 0.365077; stroke-linejoin: miter"/>
   </g>
   <g id="patch_165">
    <path d="M 430.000676 664.308 
L 434.278265 664.308 
L 434.278265 341.216357 
L 430.000676 341.216357 
z
" clip-path="url(#p1e5273c5b7)" style="fill: #dd8452; fill-opacity: 0.5; stroke: #ffffff; stroke-width: 0.365077; stroke-linejoin: miter"/>
   </g>
   <g id="patch_166">
    <path d="M 434.278265 664.308 
L 438.555853 664.308 
L 438.555853 344.267421 
L 434.278265 344.267421 
z
" clip-path="url(#p1e5273c5b7)" style="fill: #dd8452; fill-opacity: 0.5; stroke: #ffffff; stroke-width: 0.365077; stroke-linejoin: miter"/>
   </g>
   <g id="patch_167">
    <path d="M 438.555853 664.308 
L 442.833441 664.308 
L 442.833441 342.661598 
L 438.555853 342.661598 
z
" clip-path="url(#p1e5273c5b7)" style="fill: #dd8452; fill-opacity: 0.5; stroke: #ffffff; stroke-width: 0.365077; stroke-linejoin: miter"/>
   </g>
   <g id="patch_168">
    <path d="M 442.833441 664.308 
L 447.111029 664.308 
L 447.111029 341.858686 
L 442.833441 341.858686 
z
" clip-path="url(#p1e5273c5b7)" style="fill: #dd8452; fill-opacity: 0.5; stroke: #ffffff; stroke-width: 0.365077; stroke-linejoin: miter"/>
   </g>
   <g id="patch_169">
    <path d="M 447.111029 664.308 
L 451.388617 664.308 
L 451.388617 351.333043 
L 447.111029 351.333043 
z
" clip-path="url(#p1e5273c5b7)" style="fill: #dd8452; fill-opacity: 0.5; stroke: #ffffff; stroke-width: 0.365077; stroke-linejoin: miter"/>
   </g>
   <g id="patch_170">
    <path d="M 451.388617 664.308 
L 455.666206 664.308 
L 455.666206 340.413445 
L 451.388617 340.413445 
z
" clip-path="url(#p1e5273c5b7)" style="fill: #dd8452; fill-opacity: 0.5; stroke: #ffffff; stroke-width: 0.365077; stroke-linejoin: miter"/>
   </g>
   <g id="patch_171">
    <path d="M 455.666206 664.308 
L 459.943794 664.308 
L 459.943794 331.741999 
L 455.666206 331.741999 
z
" clip-path="url(#p1e5273c5b7)" style="fill: #dd8452; fill-opacity: 0.5; stroke: #ffffff; stroke-width: 0.365077; stroke-linejoin: miter"/>
   </g>
   <g id="patch_172">
    <path d="M 459.943794 664.308 
L 464.221382 664.308 
L 464.221382 323.712883 
L 459.943794 323.712883 
z
" clip-path="url(#p1e5273c5b7)" style="fill: #dd8452; fill-opacity: 0.5; stroke: #ffffff; stroke-width: 0.365077; stroke-linejoin: miter"/>
   </g>
   <g id="patch_173">
    <path d="M 464.221382 664.308 
L 468.49897 664.308 
L 468.49897 334.471899 
L 464.221382 334.471899 
z
" clip-path="url(#p1e5273c5b7)" style="fill: #dd8452; fill-opacity: 0.5; stroke: #ffffff; stroke-width: 0.365077; stroke-linejoin: miter"/>
   </g>
   <g id="patch_174">
    <path d="M 468.49897 664.308 
L 472.776559 664.308 
L 472.776559 309.902803 
L 468.49897 309.902803 
z
" clip-path="url(#p1e5273c5b7)" style="fill: #dd8452; fill-opacity: 0.5; stroke: #ffffff; stroke-width: 0.365077; stroke-linejoin: miter"/>
   </g>
   <g id="patch_175">
    <path d="M 472.776559 664.308 
L 477.054147 664.308 
L 477.054147 309.581638 
L 472.776559 309.581638 
z
" clip-path="url(#p1e5273c5b7)" style="fill: #dd8452; fill-opacity: 0.5; stroke: #ffffff; stroke-width: 0.365077; stroke-linejoin: miter"/>
   </g>
   <g id="patch_176">
    <path d="M 477.054147 664.308 
L 481.331735 664.308 
L 481.331735 305.727662 
L 477.054147 305.727662 
z
" clip-path="url(#p1e5273c5b7)" style="fill: #dd8452; fill-opacity: 0.5; stroke: #ffffff; stroke-width: 0.365077; stroke-linejoin: miter"/>
   </g>
   <g id="patch_177">
    <path d="M 481.331735 664.308 
L 485.609323 664.308 
L 485.609323 290.311759 
L 481.331735 290.311759 
z
" clip-path="url(#p1e5273c5b7)" style="fill: #dd8452; fill-opacity: 0.5; stroke: #ffffff; stroke-width: 0.365077; stroke-linejoin: miter"/>
   </g>
   <g id="patch_178">
    <path d="M 485.609323 664.308 
L 489.886912 664.308 
L 489.886912 285.654871 
L 485.609323 285.654871 
z
" clip-path="url(#p1e5273c5b7)" style="fill: #dd8452; fill-opacity: 0.5; stroke: #ffffff; stroke-width: 0.365077; stroke-linejoin: miter"/>
   </g>
   <g id="patch_179">
    <path d="M 489.886912 664.308 
L 494.1645 664.308 
L 494.1645 268.793727 
L 489.886912 268.793727 
z
" clip-path="url(#p1e5273c5b7)" style="fill: #dd8452; fill-opacity: 0.5; stroke: #ffffff; stroke-width: 0.365077; stroke-linejoin: miter"/>
   </g>
   <g id="patch_180">
    <path d="M 494.1645 664.308 
L 498.442088 664.308 
L 498.442088 254.823064 
L 494.1645 254.823064 
z
" clip-path="url(#p1e5273c5b7)" style="fill: #dd8452; fill-opacity: 0.5; stroke: #ffffff; stroke-width: 0.365077; stroke-linejoin: miter"/>
   </g>
   <g id="patch_181">
    <path d="M 498.442088 664.308 
L 502.719676 664.308 
L 502.719676 216.925635 
L 498.442088 216.925635 
z
" clip-path="url(#p1e5273c5b7)" style="fill: #dd8452; fill-opacity: 0.5; stroke: #ffffff; stroke-width: 0.365077; stroke-linejoin: miter"/>
   </g>
   <g id="patch_182">
    <path d="M 502.719676 664.308 
L 506.997265 664.308 
L 506.997265 193.641197 
L 502.719676 193.641197 
z
" clip-path="url(#p1e5273c5b7)" style="fill: #dd8452; fill-opacity: 0.5; stroke: #ffffff; stroke-width: 0.365077; stroke-linejoin: miter"/>
   </g>
   <g id="patch_183">
    <path d="M 506.997265 664.308 
L 511.274853 664.308 
L 511.274853 170.999089 
L 506.997265 170.999089 
z
" clip-path="url(#p1e5273c5b7)" style="fill: #dd8452; fill-opacity: 0.5; stroke: #ffffff; stroke-width: 0.365077; stroke-linejoin: miter"/>
   </g>
   <g id="patch_184">
    <path d="M 511.274853 664.308 
L 515.552441 664.308 
L 515.552441 121.37915 
L 511.274853 121.37915 
z
" clip-path="url(#p1e5273c5b7)" style="fill: #dd8452; fill-opacity: 0.5; stroke: #ffffff; stroke-width: 0.365077; stroke-linejoin: miter"/>
   </g>
   <g id="patch_185">
    <path d="M 515.552441 664.308 
L 519.830029 664.308 
L 519.830029 82.839391 
L 515.552441 82.839391 
z
" clip-path="url(#p1e5273c5b7)" style="fill: #dd8452; fill-opacity: 0.5; stroke: #ffffff; stroke-width: 0.365077; stroke-linejoin: miter"/>
   </g>
   <g id="patch_186">
    <path d="M 519.830029 664.308 
L 524.107618 664.308 
L 524.107618 110.138387 
L 519.830029 110.138387 
z
" clip-path="url(#p1e5273c5b7)" style="fill: #dd8452; fill-opacity: 0.5; stroke: #ffffff; stroke-width: 0.365077; stroke-linejoin: miter"/>
   </g>
   <g id="line2d_14">
    <path d="M 99.544091 664.240881 
L 113.88061 664.129567 
L 128.217129 663.697537 
L 149.721907 662.956719 
L 164.058426 662.199876 
L 174.810815 661.456872 
L 181.979075 660.757037 
L 185.563205 660.270702 
L 189.147334 659.649254 
L 192.731464 658.879918 
L 199.899724 657.027262 
L 210.652113 654.255411 
L 214.236243 653.319558 
L 217.820372 652.266612 
L 221.404502 651.048758 
L 224.988632 649.662231 
L 228.572762 648.129613 
L 232.156891 646.465289 
L 235.741021 644.648506 
L 239.325151 642.623562 
L 242.90928 640.332468 
L 246.49341 637.759705 
L 250.07754 634.949988 
L 257.245799 628.910656 
L 264.414059 622.556881 
L 271.582318 615.854603 
L 275.166448 612.232379 
L 278.750578 608.27427 
L 282.334708 603.885086 
L 285.918837 599.060717 
L 289.502967 593.892761 
L 296.671227 582.95618 
L 300.255356 577.214262 
L 303.839486 571.175373 
L 307.423616 564.753759 
L 311.007746 557.941202 
L 318.176005 543.455902 
L 332.512524 513.671211 
L 343.264913 492.160128 
L 346.849043 484.513826 
L 350.433173 476.286477 
L 354.017302 467.485548 
L 364.769692 439.947706 
L 368.353821 431.320485 
L 371.937951 423.284653 
L 375.522081 415.877524 
L 379.106211 409.078185 
L 382.69034 402.855483 
L 386.27447 397.144293 
L 393.44273 386.600014 
L 400.610989 376.42592 
L 404.195119 371.672757 
L 407.779249 367.3029 
L 411.363378 363.293438 
L 414.947508 359.542948 
L 418.531638 355.975752 
L 422.115767 352.631692 
L 425.699897 349.695252 
L 429.284027 347.431056 
L 432.868157 346.054073 
L 436.452286 345.62445 
L 440.036416 346.026796 
L 443.620546 347.021708 
L 447.204676 348.343786 
L 450.788805 349.828784 
L 454.372935 351.504645 
L 457.957065 353.552172 
L 461.541195 356.148754 
L 465.125324 359.355917 
L 468.709454 363.171069 
L 472.293584 367.648138 
L 475.877714 372.897587 
L 479.461843 378.948679 
L 483.045973 385.652132 
L 490.214233 400.040184 
L 497.382492 414.970554 
L 504.550751 430.114002 
L 511.719011 444.623577 
L 515.303141 451.74955 
L 518.88727 459.138249 
L 522.4714 467.001305 
L 529.63966 483.864027 
L 536.807919 500.686524 
L 540.392049 508.735343 
L 543.976179 516.455782 
L 547.560308 523.790038 
L 554.728568 537.544802 
L 572.649217 571.048447 
L 576.233346 577.264299 
L 579.817476 583.159328 
L 583.401606 588.701696 
L 586.985735 593.885393 
L 590.569865 598.739574 
L 594.153995 603.318091 
L 597.738125 607.666088 
L 601.322254 611.791879 
L 604.906384 615.676923 
L 608.490514 619.313195 
L 612.074644 622.719822 
L 615.658773 625.918623 
L 619.242903 628.905653 
L 622.827033 631.661085 
L 626.411163 634.18764 
L 633.579422 638.762219 
L 640.747682 643.052949 
L 644.331811 645.088054 
L 647.915941 646.981983 
L 651.500071 648.686725 
L 655.084201 650.18455 
L 658.66833 651.492682 
L 665.83659 653.720438 
L 673.004849 655.696332 
L 680.173109 657.467365 
L 687.341368 659.007248 
L 694.509628 660.311686 
L 701.677887 661.382333 
L 708.846147 662.204405 
L 716.014406 662.786944 
L 723.182666 663.175871 
L 744.687444 663.830108 
L 755.439833 663.968069 
L 805.61765 664.236536 
L 812.785909 664.248227 
L 812.785909 664.248227 
" clip-path="url(#p1e5273c5b7)" style="fill: none; stroke: #4c72b0; stroke-width: 1.5; stroke-linecap: round"/>
   </g>
   <g id="line2d_15">
    <path d="M 353.004088 383.905754 
L 355.583538 277.100799 
L 357.303172 217.996333 
L 358.162988 194.094479 
L 359.022805 174.376853 
L 359.882622 158.883329 
L 360.742439 147.462167 
L 361.602255 139.80849 
L 362.462072 135.509259 
L 363.321889 134.088589 
L 364.181705 135.048437 
L 365.041522 137.901486 
L 365.901339 142.194875 
L 367.620972 153.544882 
L 372.779873 191.632274 
L 374.499506 202.429152 
L 376.21914 211.998707 
L 378.79859 224.684778 
L 382.237857 240.14409 
L 388.256574 266.045329 
L 392.555658 283.499004 
L 395.135108 293.017699 
L 396.854741 298.633683 
L 398.574375 303.545616 
L 400.294008 307.799336 
L 402.873458 313.327556 
L 406.312725 320.004689 
L 408.892176 324.645958 
L 411.471626 328.770883 
L 414.051076 332.337097 
L 415.770709 334.420968 
L 417.490343 336.230977 
L 419.209976 337.692601 
L 420.92961 338.74656 
L 422.649243 339.401235 
L 424.368877 339.750292 
L 429.527777 340.447227 
L 432.107227 341.162682 
L 437.266128 342.816349 
L 440.705395 343.607978 
L 444.144661 344.173363 
L 445.864295 344.234476 
L 447.583928 343.971321 
L 448.443745 343.6758 
L 449.303562 343.255248 
L 451.023195 342.025337 
L 452.742829 340.31876 
L 455.322279 337.175338 
L 458.761546 332.896354 
L 464.780263 326.024305 
L 466.499897 323.484825 
L 468.21953 320.533039 
L 475.098064 308.001205 
L 479.397147 300.850865 
L 481.116781 297.558019 
L 482.836414 293.799652 
L 484.556048 289.535537 
L 486.275681 284.781951 
L 487.995315 279.560539 
L 489.714948 273.849063 
L 491.434582 267.560078 
L 493.154215 260.56132 
L 494.873849 252.731486 
L 496.593482 244.023836 
L 499.172932 229.473625 
L 501.752383 213.57746 
L 505.191649 190.787938 
L 510.35055 154.862241 
L 511.210367 149.79664 
L 512.070183 145.624933 
L 512.93 142.736317 
L 513.789817 141.583001 
L 514.649633 142.663716 
L 515.50945 146.497401 
L 516.369267 153.587259 
L 517.229084 164.376962 
L 518.0889 179.20252 
L 518.948717 198.244995 
L 519.808534 221.490302 
L 521.528167 279.416748 
L 523.247801 348.456394 
L 524.107618 384.95125 
L 524.107618 384.95125 
" clip-path="url(#p1e5273c5b7)" style="fill: none; stroke: #dd8452; stroke-width: 1.5; stroke-linecap: round"/>
   </g>
   <g id="patch_187">
    <path d="M 63.882 664.308 
L 63.882 45.504 
" style="fill: none; stroke: #ffffff; stroke-width: 1.25; stroke-linejoin: miter; stroke-linecap: square"/>
   </g>
   <g id="patch_188">
    <path d="M 848.448 664.308 
L 848.448 45.504 
" style="fill: none; stroke: #ffffff; stroke-width: 1.25; stroke-linejoin: miter; stroke-linecap: square"/>
   </g>
   <g id="patch_189">
    <path d="M 63.882 664.308 
L 848.448 664.308 
" style="fill: none; stroke: #ffffff; stroke-width: 1.25; stroke-linejoin: miter; stroke-linecap: square"/>
   </g>
   <g id="patch_190">
    <path d="M 63.882 45.504 
L 848.448 45.504 
" style="fill: none; stroke: #ffffff; stroke-width: 1.25; stroke-linejoin: miter; stroke-linecap: square"/>
   </g>
   <g id="legend_1">
    <g id="patch_191">
     <path d="M 667.257375 94.81425 
L 839.208 94.81425 
Q 841.848 94.81425 841.848 92.17425 
L 841.848 54.744 
Q 841.848 52.104 839.208 52.104 
L 667.257375 52.104 
Q 664.617375 52.104 664.617375 54.744 
L 664.617375 92.17425 
Q 664.617375 94.81425 667.257375 94.81425 
z
" style="fill: #eaeaf2; opacity: 0.8; stroke: #cccccc; stroke-linejoin: miter"/>
    </g>
    <g id="patch_192">
     <path d="M 669.897375 67.413937 
L 696.297375 67.413937 
L 696.297375 58.173937 
L 669.897375 58.173937 
z
" style="fill: #4c72b0; fill-opacity: 0.5; stroke: #ffffff; stroke-width: 0.422727; stroke-linejoin: miter"/>
    </g>
    <g id="text_16">
     <!-- Standard Gaussian -->
     <g style="fill: #262626" transform="translate(706.857375 67.413937) scale(0.132 -0.132)">
      <defs>
       <path id="DejaVuSans-53" d="M 3425 4513 
L 3425 3897 
Q 3066 4069 2747 4153 
Q 2428 4238 2131 4238 
Q 1616 4238 1336 4038 
Q 1056 3838 1056 3469 
Q 1056 3159 1242 3001 
Q 1428 2844 1947 2747 
L 2328 2669 
Q 3034 2534 3370 2195 
Q 3706 1856 3706 1288 
Q 3706 609 3251 259 
Q 2797 -91 1919 -91 
Q 1588 -91 1214 -16 
Q 841 59 441 206 
L 441 856 
Q 825 641 1194 531 
Q 1563 422 1919 422 
Q 2459 422 2753 634 
Q 3047 847 3047 1241 
Q 3047 1584 2836 1778 
Q 2625 1972 2144 2069 
L 1759 2144 
Q 1053 2284 737 2584 
Q 422 2884 422 3419 
Q 422 4038 858 4394 
Q 1294 4750 2059 4750 
Q 2388 4750 2728 4690 
Q 3069 4631 3425 4513 
z
" transform="scale(0.015625)"/>
       <path id="DejaVuSans-61" d="M 2194 1759 
Q 1497 1759 1228 1600 
Q 959 1441 959 1056 
Q 959 750 1161 570 
Q 1363 391 1709 391 
Q 2188 391 2477 730 
Q 2766 1069 2766 1631 
L 2766 1759 
L 2194 1759 
z
M 3341 1997 
L 3341 0 
L 2766 0 
L 2766 531 
Q 2569 213 2275 61 
Q 1981 -91 1556 -91 
Q 1019 -91 701 211 
Q 384 513 384 1019 
Q 384 1609 779 1909 
Q 1175 2209 1959 2209 
L 2766 2209 
L 2766 2266 
Q 2766 2663 2505 2880 
Q 2244 3097 1772 3097 
Q 1472 3097 1187 3025 
Q 903 2953 641 2809 
L 641 3341 
Q 956 3463 1253 3523 
Q 1550 3584 1831 3584 
Q 2591 3584 2966 3190 
Q 3341 2797 3341 1997 
z
" transform="scale(0.015625)"/>
       <path id="DejaVuSans-64" d="M 2906 2969 
L 2906 4863 
L 3481 4863 
L 3481 0 
L 2906 0 
L 2906 525 
Q 2725 213 2448 61 
Q 2172 -91 1784 -91 
Q 1150 -91 751 415 
Q 353 922 353 1747 
Q 353 2572 751 3078 
Q 1150 3584 1784 3584 
Q 2172 3584 2448 3432 
Q 2725 3281 2906 2969 
z
M 947 1747 
Q 947 1113 1208 752 
Q 1469 391 1925 391 
Q 2381 391 2643 752 
Q 2906 1113 2906 1747 
Q 2906 2381 2643 2742 
Q 2381 3103 1925 3103 
Q 1469 3103 1208 2742 
Q 947 2381 947 1747 
z
" transform="scale(0.015625)"/>
       <path id="DejaVuSans-72" d="M 2631 2963 
Q 2534 3019 2420 3045 
Q 2306 3072 2169 3072 
Q 1681 3072 1420 2755 
Q 1159 2438 1159 1844 
L 1159 0 
L 581 0 
L 581 3500 
L 1159 3500 
L 1159 2956 
Q 1341 3275 1631 3429 
Q 1922 3584 2338 3584 
Q 2397 3584 2469 3576 
Q 2541 3569 2628 3553 
L 2631 2963 
z
" transform="scale(0.015625)"/>
       <path id="DejaVuSans-20" transform="scale(0.015625)"/>
       <path id="DejaVuSans-47" d="M 3809 666 
L 3809 1919 
L 2778 1919 
L 2778 2438 
L 4434 2438 
L 4434 434 
Q 4069 175 3628 42 
Q 3188 -91 2688 -91 
Q 1594 -91 976 548 
Q 359 1188 359 2328 
Q 359 3472 976 4111 
Q 1594 4750 2688 4750 
Q 3144 4750 3555 4637 
Q 3966 4525 4313 4306 
L 4313 3634 
Q 3963 3931 3569 4081 
Q 3175 4231 2741 4231 
Q 1884 4231 1454 3753 
Q 1025 3275 1025 2328 
Q 1025 1384 1454 906 
Q 1884 428 2741 428 
Q 3075 428 3337 486 
Q 3600 544 3809 666 
z
" transform="scale(0.015625)"/>
       <path id="DejaVuSans-75" d="M 544 1381 
L 544 3500 
L 1119 3500 
L 1119 1403 
Q 1119 906 1312 657 
Q 1506 409 1894 409 
Q 2359 409 2629 706 
Q 2900 1003 2900 1516 
L 2900 3500 
L 3475 3500 
L 3475 0 
L 2900 0 
L 2900 538 
Q 2691 219 2414 64 
Q 2138 -91 1772 -91 
Q 1169 -91 856 284 
Q 544 659 544 1381 
z
M 1991 3584 
L 1991 3584 
z
" transform="scale(0.015625)"/>
      </defs>
      <use xlink:href="#DejaVuSans-53"/>
      <use xlink:href="#DejaVuSans-74" x="63.476562"/>
      <use xlink:href="#DejaVuSans-61" x="102.685547"/>
      <use xlink:href="#DejaVuSans-6e" x="163.964844"/>
      <use xlink:href="#DejaVuSans-64" x="227.34375"/>
      <use xlink:href="#DejaVuSans-61" x="290.820312"/>
      <use xlink:href="#DejaVuSans-72" x="352.099609"/>
      <use xlink:href="#DejaVuSans-64" x="391.462891"/>
      <use xlink:href="#DejaVuSans-20" x="454.939453"/>
      <use xlink:href="#DejaVuSans-47" x="486.726562"/>
      <use xlink:href="#DejaVuSans-61" x="564.216797"/>
      <use xlink:href="#DejaVuSans-75" x="625.496094"/>
      <use xlink:href="#DejaVuSans-73" x="688.875"/>
      <use xlink:href="#DejaVuSans-73" x="740.974609"/>
      <use xlink:href="#DejaVuSans-69" x="793.074219"/>
      <use xlink:href="#DejaVuSans-61" x="820.857422"/>
      <use xlink:href="#DejaVuSans-6e" x="882.136719"/>
     </g>
    </g>
    <g id="patch_193">
     <path d="M 669.897375 86.789062 
L 696.297375 86.789062 
L 696.297375 77.549063 
L 669.897375 77.549063 
z
" style="fill: #dd8452; fill-opacity: 0.5; stroke: #ffffff; stroke-width: 0.365077; stroke-linejoin: miter"/>
    </g>
    <g id="text_17">
     <!-- Squashed Gaussian -->
     <g style="fill: #262626" transform="translate(706.857375 86.789062) scale(0.132 -0.132)">
      <defs>
       <path id="DejaVuSans-71" d="M 947 1747 
Q 947 1113 1208 752 
Q 1469 391 1925 391 
Q 2381 391 2643 752 
Q 2906 1113 2906 1747 
Q 2906 2381 2643 2742 
Q 2381 3103 1925 3103 
Q 1469 3103 1208 2742 
Q 947 2381 947 1747 
z
M 2906 525 
Q 2725 213 2448 61 
Q 2172 -91 1784 -91 
Q 1150 -91 751 415 
Q 353 922 353 1747 
Q 353 2572 751 3078 
Q 1150 3584 1784 3584 
Q 2172 3584 2448 3432 
Q 2725 3281 2906 2969 
L 2906 3500 
L 3481 3500 
L 3481 -1331 
L 2906 -1331 
L 2906 525 
z
" transform="scale(0.015625)"/>
       <path id="DejaVuSans-68" d="M 3513 2113 
L 3513 0 
L 2938 0 
L 2938 2094 
Q 2938 2591 2744 2837 
Q 2550 3084 2163 3084 
Q 1697 3084 1428 2787 
Q 1159 2491 1159 1978 
L 1159 0 
L 581 0 
L 581 4863 
L 1159 4863 
L 1159 2956 
Q 1366 3272 1645 3428 
Q 1925 3584 2291 3584 
Q 2894 3584 3203 3211 
Q 3513 2838 3513 2113 
z
" transform="scale(0.015625)"/>
      </defs>
      <use xlink:href="#DejaVuSans-53"/>
      <use xlink:href="#DejaVuSans-71" x="63.476562"/>
      <use xlink:href="#DejaVuSans-75" x="126.953125"/>
      <use xlink:href="#DejaVuSans-61" x="190.332031"/>
      <use xlink:href="#DejaVuSans-73" x="251.611328"/>
      <use xlink:href="#DejaVuSans-68" x="303.710938"/>
      <use xlink:href="#DejaVuSans-65" x="367.089844"/>
      <use xlink:href="#DejaVuSans-64" x="428.613281"/>
      <use xlink:href="#DejaVuSans-20" x="492.089844"/>
      <use xlink:href="#DejaVuSans-47" x="523.876953"/>
      <use xlink:href="#DejaVuSans-61" x="601.367188"/>
      <use xlink:href="#DejaVuSans-75" x="662.646484"/>
      <use xlink:href="#DejaVuSans-73" x="726.025391"/>
      <use xlink:href="#DejaVuSans-73" x="778.125"/>
      <use xlink:href="#DejaVuSans-69" x="830.224609"/>
      <use xlink:href="#DejaVuSans-61" x="858.007812"/>
      <use xlink:href="#DejaVuSans-6e" x="919.287109"/>
     </g>
    </g>
   </g>
  </g>
  <g id="text_18">
   <!-- Distribution of actions for a Gaussian and squashed Gaussian distributions -->
   <g style="fill: #262626" transform="translate(133.37375 26.5575) scale(0.16 -0.16)">
    <defs>
     <path id="DejaVuSans-62" d="M 3116 1747 
Q 3116 2381 2855 2742 
Q 2594 3103 2138 3103 
Q 1681 3103 1420 2742 
Q 1159 2381 1159 1747 
Q 1159 1113 1420 752 
Q 1681 391 2138 391 
Q 2594 391 2855 752 
Q 3116 1113 3116 1747 
z
M 1159 2969 
Q 1341 3281 1617 3432 
Q 1894 3584 2278 3584 
Q 2916 3584 3314 3078 
Q 3713 2572 3713 1747 
Q 3713 922 3314 415 
Q 2916 -91 2278 -91 
Q 1894 -91 1617 61 
Q 1341 213 1159 525 
L 1159 0 
L 581 0 
L 581 4863 
L 1159 4863 
L 1159 2969 
z
" transform="scale(0.015625)"/>
     <path id="DejaVuSans-66" d="M 2375 4863 
L 2375 4384 
L 1825 4384 
Q 1516 4384 1395 4259 
Q 1275 4134 1275 3809 
L 1275 3500 
L 2222 3500 
L 2222 3053 
L 1275 3053 
L 1275 0 
L 697 0 
L 697 3053 
L 147 3053 
L 147 3500 
L 697 3500 
L 697 3744 
Q 697 4328 969 4595 
Q 1241 4863 1831 4863 
L 2375 4863 
z
" transform="scale(0.015625)"/>
    </defs>
    <use xlink:href="#DejaVuSans-44"/>
    <use xlink:href="#DejaVuSans-69" x="77.001953"/>
    <use xlink:href="#DejaVuSans-73" x="104.785156"/>
    <use xlink:href="#DejaVuSans-74" x="156.884766"/>
    <use xlink:href="#DejaVuSans-72" x="196.09375"/>
    <use xlink:href="#DejaVuSans-69" x="237.207031"/>
    <use xlink:href="#DejaVuSans-62" x="264.990234"/>
    <use xlink:href="#DejaVuSans-75" x="328.466797"/>
    <use xlink:href="#DejaVuSans-74" x="391.845703"/>
    <use xlink:href="#DejaVuSans-69" x="431.054688"/>
    <use xlink:href="#DejaVuSans-6f" x="458.837891"/>
    <use xlink:href="#DejaVuSans-6e" x="520.019531"/>
    <use xlink:href="#DejaVuSans-20" x="583.398438"/>
    <use xlink:href="#DejaVuSans-6f" x="615.185547"/>
    <use xlink:href="#DejaVuSans-66" x="676.367188"/>
    <use xlink:href="#DejaVuSans-20" x="711.572266"/>
    <use xlink:href="#DejaVuSans-61" x="743.359375"/>
    <use xlink:href="#DejaVuSans-63" x="804.638672"/>
    <use xlink:href="#DejaVuSans-74" x="859.619141"/>
    <use xlink:href="#DejaVuSans-69" x="898.828125"/>
    <use xlink:href="#DejaVuSans-6f" x="926.611328"/>
    <use xlink:href="#DejaVuSans-6e" x="987.792969"/>
    <use xlink:href="#DejaVuSans-73" x="1051.171875"/>
    <use xlink:href="#DejaVuSans-20" x="1103.271484"/>
    <use xlink:href="#DejaVuSans-66" x="1135.058594"/>
    <use xlink:href="#DejaVuSans-6f" x="1170.263672"/>
    <use xlink:href="#DejaVuSans-72" x="1231.445312"/>
    <use xlink:href="#DejaVuSans-20" x="1272.558594"/>
    <use xlink:href="#DejaVuSans-61" x="1304.345703"/>
    <use xlink:href="#DejaVuSans-20" x="1365.625"/>
    <use xlink:href="#DejaVuSans-47" x="1397.412109"/>
    <use xlink:href="#DejaVuSans-61" x="1474.902344"/>
    <use xlink:href="#DejaVuSans-75" x="1536.181641"/>
    <use xlink:href="#DejaVuSans-73" x="1599.560547"/>
    <use xlink:href="#DejaVuSans-73" x="1651.660156"/>
    <use xlink:href="#DejaVuSans-69" x="1703.759766"/>
    <use xlink:href="#DejaVuSans-61" x="1731.542969"/>
    <use xlink:href="#DejaVuSans-6e" x="1792.822266"/>
    <use xlink:href="#DejaVuSans-20" x="1856.201172"/>
    <use xlink:href="#DejaVuSans-61" x="1887.988281"/>
    <use xlink:href="#DejaVuSans-6e" x="1949.267578"/>
    <use xlink:href="#DejaVuSans-64" x="2012.646484"/>
    <use xlink:href="#DejaVuSans-20" x="2076.123047"/>
    <use xlink:href="#DejaVuSans-73" x="2107.910156"/>
    <use xlink:href="#DejaVuSans-71" x="2160.009766"/>
    <use xlink:href="#DejaVuSans-75" x="2223.486328"/>
    <use xlink:href="#DejaVuSans-61" x="2286.865234"/>
    <use xlink:href="#DejaVuSans-73" x="2348.144531"/>
    <use xlink:href="#DejaVuSans-68" x="2400.244141"/>
    <use xlink:href="#DejaVuSans-65" x="2463.623047"/>
    <use xlink:href="#DejaVuSans-64" x="2525.146484"/>
    <use xlink:href="#DejaVuSans-20" x="2588.623047"/>
    <use xlink:href="#DejaVuSans-47" x="2620.410156"/>
    <use xlink:href="#DejaVuSans-61" x="2697.900391"/>
    <use xlink:href="#DejaVuSans-75" x="2759.179688"/>
    <use xlink:href="#DejaVuSans-73" x="2822.558594"/>
    <use xlink:href="#DejaVuSans-73" x="2874.658203"/>
    <use xlink:href="#DejaVuSans-69" x="2926.757812"/>
    <use xlink:href="#DejaVuSans-61" x="2954.541016"/>
    <use xlink:href="#DejaVuSans-6e" x="3015.820312"/>
    <use xlink:href="#DejaVuSans-20" x="3079.199219"/>
    <use xlink:href="#DejaVuSans-64" x="3110.986328"/>
    <use xlink:href="#DejaVuSans-69" x="3174.462891"/>
    <use xlink:href="#DejaVuSans-73" x="3202.246094"/>
    <use xlink:href="#DejaVuSans-74" x="3254.345703"/>
    <use xlink:href="#DejaVuSans-72" x="3293.554688"/>
    <use xlink:href="#DejaVuSans-69" x="3334.667969"/>
    <use xlink:href="#DejaVuSans-62" x="3362.451172"/>
    <use xlink:href="#DejaVuSans-75" x="3425.927734"/>
    <use xlink:href="#DejaVuSans-74" x="3489.306641"/>
    <use xlink:href="#DejaVuSans-69" x="3528.515625"/>
    <use xlink:href="#DejaVuSans-6f" x="3556.298828"/>
    <use xlink:href="#DejaVuSans-6e" x="3617.480469"/>
    <use xlink:href="#DejaVuSans-73" x="3680.859375"/>
   </g>
  </g>
 </g>
 <defs>
  <clipPath id="p1e5273c5b7">
   <rect x="63.882" y="45.504" width="784.566" height="618.804"/>
  </clipPath>
 </defs>
</svg>
