<?xml version="1.0" encoding="UTF-8"?>
<svg xmlns="http://www.w3.org/2000/svg" xmlns:xlink="http://www.w3.org/1999/xlink" width="394" height="262" viewBox="0 0 394 262">
<defs>
<clipPath id="clip-0">
<path clip-rule="nonzero" d="M 0 0 L 394 0 L 394 262 L 0 262 Z M 0 0 "/>
</clipPath>
<clipPath id="clip-1">
<path clip-rule="nonzero" d="M 101 218 L 394 218 L 394 236 L 101 236 Z M 101 218 "/>
</clipPath>
<clipPath id="clip-2">
<path clip-rule="nonzero" d="M 364 218 L 394 218 L 394 243 L 364 243 Z M 364 218 "/>
</clipPath>
<clipPath id="clip-3">
<path clip-rule="nonzero" d="M 364 212 L 394 212 L 394 236 L 364 236 Z M 364 212 "/>
</clipPath>
<clipPath id="clip-4">
<path clip-rule="nonzero" d="M 141 249.386719 L 148 249.386719 L 148 261.050781 L 141 261.050781 Z M 141 249.386719 "/>
</clipPath>
<clipPath id="clip-5">
<path clip-rule="nonzero" d="M 176 249.386719 L 184 249.386719 L 184 261.050781 L 176 261.050781 Z M 176 249.386719 "/>
</clipPath>
<clipPath id="clip-6">
<path clip-rule="nonzero" d="M 211 249.414062 L 219 249.414062 L 219 261.4375 L 211 261.4375 Z M 211 249.414062 "/>
</clipPath>
<clipPath id="clip-7">
<path clip-rule="nonzero" d="M 384 240.199219 L 394 240.199219 L 394 251.285156 L 384 251.285156 Z M 384 240.199219 "/>
</clipPath>
<clipPath id="clip-8">
<path clip-rule="nonzero" d="M 0 0.5 L 13 0.5 L 13 17 L 0 17 Z M 0 0.5 "/>
</clipPath>
<clipPath id="clip-9">
<path clip-rule="nonzero" d="M 15 0.5 L 20 0.5 L 20 17.261719 L 15 17.261719 Z M 15 0.5 "/>
</clipPath>
<clipPath id="clip-10">
<path clip-rule="nonzero" d="M 69 0.5 L 74 0.5 L 74 13 L 69 13 Z M 69 0.5 "/>
</clipPath>
<clipPath id="clip-11">
<path clip-rule="nonzero" d="M 81 0.5 L 88 0.5 L 88 13 L 81 13 Z M 81 0.5 "/>
</clipPath>
<clipPath id="clip-12">
<path clip-rule="nonzero" d="M 94 0.5 L 99 0.5 L 99 17.261719 L 94 17.261719 Z M 94 0.5 "/>
</clipPath>
<clipPath id="clip-13">
<rect x="0" y="0" width="394" height="262"/>
</clipPath>
<g id="source-5" clip-path="url(#clip-13)">
<g clip-path="url(#clip-0)">
<rect x="-86.68" y="-57.64" width="567.36" height="377.28" fill="rgb(100%, 100%, 100%)" fill-opacity="1"/>
</g>
<path fill="none" stroke-width="1.499995" stroke-linecap="round" stroke-linejoin="miter" stroke="rgb(0%, 0%, 0%)" stroke-opacity="1" stroke-miterlimit="4" d="M 134.542969 205.726562 C 142.917969 204.976562 170.292969 197.351562 184.789062 201.226562 C 199.289062 205.105469 209.039062 237.355469 221.539062 228.976562 C 234.042969 220.601562 248.039062 157.601562 259.789062 150.976562 C 271.542969 144.355469 280.917969 175.726562 292.039062 189.226562 C 303.164062 202.726562 308.914062 220.226562 326.539062 231.976562 C 344.164062 243.730469 385.917969 255.101562 397.789062 259.726562 M 134.542969 205.726562 C 142.917969 204.976562 170.292969 197.351562 184.789062 201.226562 C 199.289062 205.105469 209.039062 237.355469 221.539062 228.976562 C 234.042969 220.601562 248.039062 157.601562 259.789062 150.976562 C 271.542969 144.355469 280.917969 175.726562 292.039062 189.226562 C 303.164062 202.726562 308.914062 220.226562 326.539062 231.976562 C 344.164062 243.730469 385.917969 255.101562 397.789062 259.726562 " transform="matrix(1, 0, 0, 1, -44, -43)"/>
<g clip-path="url(#clip-1)">
<path fill="none" stroke-width="1.499995" stroke-linecap="round" stroke-linejoin="miter" stroke="rgb(0%, 0%, 0%)" stroke-opacity="1" stroke-miterlimit="4" d="M 154.039062 270.226562 C 200.773438 270.226562 387.6875 270.226562 434.414062 270.226562 M 154.039062 270.226562 C 200.773438 270.226562 387.6875 270.226562 434.414062 270.226562 " transform="matrix(1, 0, 0, 1, -44, -43)"/>
</g>
<g clip-path="url(#clip-2)">
<path fill="none" stroke-width="1.499995" stroke-linecap="round" stroke-linejoin="miter" stroke="rgb(0%, 0%, 0%)" stroke-opacity="1" stroke-miterlimit="4" d="M 416.796875 276.640625 C 422.953125 274.398438 429.109375 272.15625 434.414062 270.226562 M 416.796875 276.640625 C 422.238281 274.660156 427.691406 272.671875 434.414062 270.226562 " transform="matrix(1, 0, 0, 1, -44, -43)"/>
</g>
<g clip-path="url(#clip-3)">
<path fill="none" stroke-width="1.499995" stroke-linecap="round" stroke-linejoin="miter" stroke="rgb(0%, 0%, 0%)" stroke-opacity="1" stroke-miterlimit="4" d="M 416.796875 263.816406 C 422.953125 266.058594 429.109375 268.300781 434.414062 270.226562 M 416.796875 263.816406 C 422.238281 265.792969 427.691406 267.78125 434.414062 270.226562 " transform="matrix(1, 0, 0, 1, -44, -43)"/>
</g>
<path fill="none" stroke-width="1.499995" stroke-linecap="round" stroke-linejoin="miter" stroke="rgb(0%, 0%, 0%)" stroke-opacity="1" stroke-miterlimit="4" d="M 152.539062 269.476562 C 152.539062 235.351562 152.539062 98.851562 152.539062 64.726562 M 152.539062 269.476562 C 152.539062 235.351562 152.539062 98.851562 152.539062 64.726562 " transform="matrix(1, 0, 0, 1, -44, -43)"/>
<path fill="none" stroke-width="1.499995" stroke-linecap="round" stroke-linejoin="miter" stroke="rgb(0%, 0%, 0%)" stroke-opacity="1" stroke-miterlimit="4" d="M 158.953125 82.34375 C 156.851562 76.570312 154.746094 70.796875 152.539062 64.726562 M 158.953125 82.34375 C 157.117188 77.296875 155.277344 72.242188 152.539062 64.726562 " transform="matrix(1, 0, 0, 1, -44, -43)"/>
<path fill="none" stroke-width="1.499995" stroke-linecap="round" stroke-linejoin="miter" stroke="rgb(0%, 0%, 0%)" stroke-opacity="1" stroke-miterlimit="4" d="M 146.128906 82.34375 C 148.230469 76.570312 150.335938 70.796875 152.539062 64.726562 M 146.128906 82.34375 C 147.964844 77.296875 149.804688 72.242188 152.539062 64.726562 " transform="matrix(1, 0, 0, 1, -44, -43)"/>
<path fill="none" stroke-width="1.499995" stroke-linecap="round" stroke-linejoin="miter" stroke="rgb(0%, 0%, 0%)" stroke-opacity="1" stroke-miterlimit="4" d="M 189.289062 263.476562 C 189.289062 265.976562 189.289062 275.980469 189.289062 278.476562 M 189.289062 263.476562 C 189.289062 265.976562 189.289062 275.980469 189.289062 278.476562 " transform="matrix(1, 0, 0, 1, -44, -43)"/>
<path fill="none" stroke-width="1.499995" stroke-linecap="round" stroke-linejoin="miter" stroke="rgb(0%, 0%, 0%)" stroke-opacity="1" stroke-miterlimit="4" d="M 223.789062 263.476562 C 223.789062 265.976562 223.789062 275.980469 223.789062 278.476562 M 223.789062 263.476562 C 223.789062 265.976562 223.789062 275.980469 223.789062 278.476562 " transform="matrix(1, 0, 0, 1, -44, -43)"/>
<path fill="none" stroke-width="1.499995" stroke-linecap="round" stroke-linejoin="miter" stroke="rgb(0%, 0%, 0%)" stroke-opacity="1" stroke-miterlimit="4" d="M 258.289062 263.476562 C 258.289062 265.976562 258.289062 275.980469 258.289062 278.476562 M 258.289062 263.476562 C 258.289062 265.976562 258.289062 275.980469 258.289062 278.476562 " transform="matrix(1, 0, 0, 1, -44, -43)"/>
<path fill="none" stroke-width="1.499995" stroke-linecap="round" stroke-linejoin="miter" stroke="rgb(0%, 0%, 0%)" stroke-opacity="1" stroke-miterlimit="4" d="M 292.789062 263.476562 C 292.789062 265.976562 292.789062 275.980469 292.789062 278.476562 M 292.789062 263.476562 C 292.789062 265.976562 292.789062 275.980469 292.789062 278.476562 " transform="matrix(1, 0, 0, 1, -44, -43)"/>
<path fill="none" stroke-width="1.499995" stroke-linecap="round" stroke-linejoin="miter" stroke="rgb(0%, 0%, 0%)" stroke-opacity="1" stroke-miterlimit="4" d="M 327.289062 263.476562 C 327.289062 265.976562 327.289062 275.980469 327.289062 278.476562 M 327.289062 263.476562 C 327.289062 265.976562 327.289062 275.980469 327.289062 278.476562 " transform="matrix(1, 0, 0, 1, -44, -43)"/>
<path fill-rule="nonzero" fill="rgb(52.548218%, 55.685425%, 58.822632%)" fill-opacity="1" stroke-width="1.499995" stroke-linecap="round" stroke-linejoin="miter" stroke="rgb(0%, 0%, 0%)" stroke-opacity="1" stroke-miterlimit="4" d="M 190.789062 200.851562 C 190.789062 201.136719 190.769531 201.421875 190.714844 201.699219 C 190.671875 201.976562 190.597656 202.253906 190.5 202.515625 C 190.402344 202.789062 190.28125 203.042969 190.136719 203.289062 C 189.996094 203.539062 189.832031 203.769531 189.652344 203.988281 C 189.472656 204.203125 189.269531 204.40625 189.050781 204.585938 C 188.832031 204.765625 188.601562 204.933594 188.351562 205.074219 C 188.105469 205.21875 187.851562 205.335938 187.582031 205.433594 C 187.320312 205.53125 187.039062 205.609375 186.761719 205.652344 C 186.484375 205.703125 186.199219 205.726562 185.914062 205.726562 C 185.632812 205.726562 185.347656 205.703125 185.070312 205.652344 C 184.789062 205.609375 184.511719 205.53125 184.25 205.433594 C 183.980469 205.335938 183.726562 205.21875 183.476562 205.074219 C 183.230469 204.933594 183 204.765625 182.78125 204.585938 C 182.5625 204.40625 182.359375 204.203125 182.179688 203.988281 C 182 203.769531 181.835938 203.539062 181.695312 203.289062 C 181.550781 203.042969 181.429688 202.789062 181.332031 202.515625 C 181.234375 202.253906 181.160156 201.976562 181.117188 201.699219 C 181.0625 201.421875 181.039062 201.136719 181.039062 200.851562 C 181.039062 200.566406 181.0625 200.28125 181.117188 200.003906 C 181.160156 199.726562 181.234375 199.449219 181.332031 199.1875 C 181.429688 198.917969 181.550781 198.664062 181.695312 198.414062 C 181.835938 198.167969 182 197.933594 182.179688 197.71875 C 182.359375 197.5 182.5625 197.296875 182.78125 197.117188 C 183 196.9375 183.230469 196.773438 183.476562 196.628906 C 183.726562 196.488281 183.980469 196.367188 184.25 196.269531 C 184.511719 196.171875 184.789062 196.097656 185.070312 196.050781 C 185.347656 196 185.632812 195.976562 185.914062 195.976562 C 186.199219 195.976562 186.484375 196 186.761719 196.050781 C 187.039062 196.097656 187.320312 196.171875 187.582031 196.269531 C 187.851562 196.367188 188.105469 196.488281 188.351562 196.628906 C 188.601562 196.773438 188.832031 196.9375 189.050781 197.117188 C 189.269531 197.296875 189.472656 197.5 189.652344 197.71875 C 189.832031 197.933594 189.996094 198.167969 190.136719 198.414062 C 190.28125 198.664062 190.402344 198.917969 190.5 199.1875 C 190.597656 199.449219 190.671875 199.726562 190.714844 200.003906 C 190.769531 200.28125 190.777344 200.710938 190.789062 200.851562 C 190.804688 200.996094 190.804688 200.710938 190.789062 200.851562 " transform="matrix(1, 0, 0, 1, -44, -43)"/>
<path fill-rule="nonzero" fill="rgb(52.548218%, 55.685425%, 58.822632%)" fill-opacity="1" stroke-width="1.499995" stroke-linecap="round" stroke-linejoin="miter" stroke="rgb(0%, 0%, 0%)" stroke-opacity="1" stroke-miterlimit="4" d="M 227.914062 228.976562 C 227.914062 229.261719 227.894531 229.546875 227.839844 229.824219 C 227.796875 230.101562 227.722656 230.378906 227.625 230.640625 C 227.527344 230.914062 227.40625 231.167969 227.261719 231.414062 C 227.121094 231.664062 226.957031 231.894531 226.777344 232.113281 C 226.597656 232.328125 226.394531 232.53125 226.175781 232.710938 C 225.957031 232.890625 225.726562 233.058594 225.476562 233.199219 C 225.230469 233.34375 224.976562 233.460938 224.707031 233.558594 C 224.441406 233.65625 224.164062 233.730469 223.886719 233.777344 C 223.609375 233.828125 223.324219 233.851562 223.039062 233.851562 C 222.753906 233.851562 222.472656 233.828125 222.191406 233.777344 C 221.914062 233.730469 221.636719 233.65625 221.375 233.558594 C 221.105469 233.460938 220.851562 233.34375 220.601562 233.199219 C 220.355469 233.058594 220.125 232.890625 219.90625 232.710938 C 219.6875 232.53125 219.484375 232.328125 219.304688 232.113281 C 219.125 231.894531 218.960938 231.664062 218.816406 231.414062 C 218.675781 231.167969 218.554688 230.914062 218.457031 230.640625 C 218.359375 230.378906 218.285156 230.101562 218.242188 229.824219 C 218.1875 229.546875 218.164062 229.261719 218.164062 228.976562 C 218.164062 228.691406 218.1875 228.40625 218.242188 228.128906 C 218.285156 227.851562 218.359375 227.574219 218.457031 227.3125 C 218.554688 227.042969 218.675781 226.789062 218.816406 226.539062 C 218.960938 226.292969 219.125 226.058594 219.304688 225.84375 C 219.484375 225.625 219.6875 225.421875 219.90625 225.242188 C 220.125 225.0625 220.355469 224.898438 220.601562 224.753906 C 220.851562 224.613281 221.105469 224.492188 221.375 224.394531 C 221.636719 224.296875 221.914062 224.222656 222.191406 224.175781 C 222.472656 224.125 222.753906 224.101562 223.039062 224.101562 C 223.324219 224.101562 223.609375 224.125 223.886719 224.175781 C 224.164062 224.222656 224.441406 224.296875 224.707031 224.394531 C 224.976562 224.492188 225.230469 224.613281 225.476562 224.753906 C 225.726562 224.898438 225.957031 225.0625 226.175781 225.242188 C 226.394531 225.421875 226.597656 225.625 226.777344 225.84375 C 226.957031 226.058594 227.121094 226.292969 227.261719 226.539062 C 227.40625 226.789062 227.527344 227.042969 227.625 227.3125 C 227.722656 227.574219 227.796875 227.851562 227.839844 228.128906 C 227.894531 228.40625 227.902344 228.835938 227.914062 228.976562 C 227.929688 229.121094 227.929688 228.835938 227.914062 228.976562 " transform="matrix(1, 0, 0, 1, -44, -43)"/>
<path fill-rule="nonzero" fill="rgb(52.548218%, 55.685425%, 58.822632%)" fill-opacity="1" stroke-width="1.499995" stroke-linecap="round" stroke-linejoin="miter" stroke="rgb(0%, 0%, 0%)" stroke-opacity="1" stroke-miterlimit="4" d="M 264.664062 149.476562 C 264.664062 149.761719 264.644531 150.046875 264.589844 150.324219 C 264.546875 150.601562 264.46875 150.878906 264.375 151.144531 C 264.277344 151.414062 264.15625 151.667969 264.011719 151.914062 C 263.871094 152.164062 263.707031 152.394531 263.527344 152.613281 C 263.34375 152.832031 263.144531 153.03125 262.925781 153.210938 C 262.707031 153.394531 262.476562 153.558594 262.226562 153.699219 C 261.980469 153.84375 261.726562 153.960938 261.457031 154.058594 C 261.191406 154.15625 260.914062 154.234375 260.636719 154.277344 C 260.359375 154.332031 260.074219 154.351562 259.789062 154.351562 C 259.503906 154.351562 259.21875 154.332031 258.941406 154.277344 C 258.664062 154.234375 258.386719 154.15625 258.125 154.058594 C 257.855469 153.960938 257.601562 153.84375 257.351562 153.699219 C 257.105469 153.558594 256.875 153.394531 256.65625 153.210938 C 256.4375 153.03125 256.234375 152.832031 256.054688 152.613281 C 255.875 152.394531 255.710938 152.164062 255.566406 151.914062 C 255.425781 151.667969 255.304688 151.414062 255.207031 151.144531 C 255.109375 150.878906 255.035156 150.601562 254.992188 150.324219 C 254.9375 150.046875 254.914062 149.761719 254.914062 149.476562 C 254.914062 149.191406 254.9375 148.90625 254.992188 148.628906 C 255.035156 148.351562 255.109375 148.074219 255.207031 147.8125 C 255.304688 147.542969 255.425781 147.289062 255.566406 147.039062 C 255.710938 146.792969 255.875 146.558594 256.054688 146.34375 C 256.234375 146.125 256.4375 145.921875 256.65625 145.742188 C 256.875 145.5625 257.105469 145.398438 257.351562 145.253906 C 257.601562 145.113281 257.855469 144.992188 258.125 144.894531 C 258.386719 144.796875 258.664062 144.722656 258.941406 144.679688 C 259.21875 144.625 259.503906 144.601562 259.789062 144.601562 C 260.074219 144.601562 260.359375 144.625 260.636719 144.679688 C 260.914062 144.722656 261.191406 144.796875 261.457031 144.894531 C 261.726562 144.992188 261.980469 145.113281 262.226562 145.253906 C 262.476562 145.398438 262.707031 145.5625 262.925781 145.742188 C 263.144531 145.921875 263.34375 146.125 263.527344 146.34375 C 263.707031 146.558594 263.871094 146.792969 264.011719 147.039062 C 264.15625 147.289062 264.277344 147.542969 264.375 147.8125 C 264.46875 148.074219 264.546875 148.351562 264.589844 148.628906 C 264.644531 148.90625 264.652344 149.335938 264.664062 149.476562 C 264.679688 149.621094 264.679688 149.335938 264.664062 149.476562 " transform="matrix(1, 0, 0, 1, -44, -43)"/>
<path fill-rule="nonzero" fill="rgb(52.548218%, 55.685425%, 58.822632%)" fill-opacity="1" stroke-width="1.499995" stroke-linecap="round" stroke-linejoin="miter" stroke="rgb(0%, 0%, 0%)" stroke-opacity="1" stroke-miterlimit="4" d="M 297.664062 190.726562 C 297.664062 191.011719 297.644531 191.296875 297.589844 191.574219 C 297.546875 191.851562 297.46875 192.128906 297.371094 192.390625 C 297.277344 192.664062 297.15625 192.917969 297.011719 193.164062 C 296.871094 193.414062 296.707031 193.644531 296.527344 193.863281 C 296.34375 194.078125 296.144531 194.28125 295.925781 194.460938 C 295.707031 194.640625 295.476562 194.808594 295.226562 194.949219 C 294.980469 195.09375 294.726562 195.210938 294.457031 195.308594 C 294.191406 195.40625 293.914062 195.484375 293.636719 195.527344 C 293.359375 195.578125 293.074219 195.601562 292.789062 195.601562 C 292.503906 195.601562 292.21875 195.578125 291.941406 195.527344 C 291.664062 195.484375 291.386719 195.40625 291.125 195.308594 C 290.855469 195.210938 290.601562 195.09375 290.351562 194.949219 C 290.105469 194.808594 289.871094 194.640625 289.65625 194.460938 C 289.4375 194.28125 289.234375 194.078125 289.054688 193.863281 C 288.875 193.644531 288.710938 193.414062 288.566406 193.164062 C 288.425781 192.917969 288.304688 192.664062 288.207031 192.390625 C 288.109375 192.128906 288.035156 191.851562 287.992188 191.574219 C 287.9375 191.296875 287.914062 191.011719 287.914062 190.726562 C 287.914062 190.441406 287.9375 190.15625 287.992188 189.878906 C 288.035156 189.601562 288.109375 189.324219 288.207031 189.0625 C 288.304688 188.792969 288.425781 188.539062 288.566406 188.289062 C 288.710938 188.042969 288.875 187.808594 289.054688 187.59375 C 289.234375 187.375 289.4375 187.171875 289.65625 186.992188 C 289.871094 186.8125 290.105469 186.648438 290.351562 186.503906 C 290.601562 186.363281 290.855469 186.242188 291.125 186.144531 C 291.386719 186.046875 291.664062 185.972656 291.941406 185.925781 C 292.21875 185.875 292.503906 185.851562 292.789062 185.851562 C 293.074219 185.851562 293.359375 185.875 293.636719 185.925781 C 293.914062 185.972656 294.191406 186.046875 294.457031 186.144531 C 294.726562 186.242188 294.980469 186.363281 295.226562 186.503906 C 295.476562 186.648438 295.707031 186.8125 295.925781 186.992188 C 296.144531 187.171875 296.34375 187.375 296.527344 187.59375 C 296.707031 187.808594 296.871094 188.042969 297.011719 188.289062 C 297.15625 188.539062 297.277344 188.792969 297.371094 189.0625 C 297.46875 189.324219 297.546875 189.601562 297.589844 189.878906 C 297.644531 190.15625 297.652344 190.585938 297.664062 190.726562 C 297.679688 190.871094 297.679688 190.585938 297.664062 190.726562 " transform="matrix(1, 0, 0, 1, -44, -43)"/>
<path fill-rule="nonzero" fill="rgb(52.548218%, 55.685425%, 58.822632%)" fill-opacity="1" stroke-width="1.499995" stroke-linecap="round" stroke-linejoin="miter" stroke="rgb(0%, 0%, 0%)" stroke-opacity="1" stroke-miterlimit="4" d="M 332.164062 231.226562 C 332.164062 231.511719 332.144531 231.796875 332.089844 232.074219 C 332.046875 232.351562 331.96875 232.628906 331.871094 232.890625 C 331.773438 233.164062 331.65625 233.417969 331.511719 233.664062 C 331.371094 233.914062 331.207031 234.144531 331.023438 234.363281 C 330.84375 234.578125 330.644531 234.78125 330.425781 234.960938 C 330.207031 235.140625 329.976562 235.308594 329.726562 235.449219 C 329.480469 235.59375 329.226562 235.710938 328.957031 235.808594 C 328.691406 235.90625 328.414062 235.980469 328.136719 236.027344 C 327.859375 236.078125 327.574219 236.101562 327.289062 236.101562 C 327.003906 236.101562 326.71875 236.078125 326.441406 236.027344 C 326.164062 235.980469 325.886719 235.90625 325.625 235.808594 C 325.355469 235.710938 325.101562 235.59375 324.851562 235.449219 C 324.605469 235.308594 324.371094 235.140625 324.15625 234.960938 C 323.9375 234.78125 323.734375 234.578125 323.554688 234.363281 C 323.375 234.144531 323.210938 233.914062 323.066406 233.664062 C 322.925781 233.417969 322.804688 233.164062 322.707031 232.890625 C 322.609375 232.628906 322.535156 232.351562 322.492188 232.074219 C 322.4375 231.796875 322.414062 231.511719 322.414062 231.226562 C 322.414062 230.941406 322.4375 230.65625 322.492188 230.378906 C 322.535156 230.101562 322.609375 229.824219 322.707031 229.5625 C 322.804688 229.292969 322.925781 229.039062 323.066406 228.789062 C 323.210938 228.542969 323.375 228.308594 323.554688 228.09375 C 323.734375 227.875 323.9375 227.671875 324.15625 227.492188 C 324.371094 227.3125 324.605469 227.148438 324.851562 227.003906 C 325.101562 226.863281 325.355469 226.742188 325.625 226.644531 C 325.886719 226.546875 326.164062 226.472656 326.441406 226.425781 C 326.71875 226.375 327.003906 226.351562 327.289062 226.351562 C 327.574219 226.351562 327.859375 226.375 328.136719 226.425781 C 328.414062 226.472656 328.691406 226.546875 328.957031 226.644531 C 329.226562 226.742188 329.480469 226.863281 329.726562 227.003906 C 329.976562 227.148438 330.207031 227.3125 330.425781 227.492188 C 330.644531 227.671875 330.84375 227.875 331.023438 228.09375 C 331.207031 228.308594 331.371094 228.542969 331.511719 228.789062 C 331.65625 229.039062 331.773438 229.292969 331.871094 229.5625 C 331.96875 229.824219 332.046875 230.101562 332.089844 230.378906 C 332.144531 230.65625 332.148438 231.085938 332.164062 231.226562 C 332.179688 231.371094 332.179688 231.085938 332.164062 231.226562 " transform="matrix(1, 0, 0, 1, -44, -43)"/>
<g clip-path="url(#clip-4)">
<path fill-rule="nonzero" fill="rgb(11.764526%, 11.764526%, 11.764526%)" fill-opacity="1" d="M 144.203125 250.929688 L 143.976562 251.015625 C 143.8125 251.074219 143.578125 251.132812 143.273438 251.191406 C 142.972656 251.25 142.632812 251.292969 142.257812 251.316406 L 141.925781 251.316406 L 141.925781 250.507812 L 142.257812 250.507812 C 142.808594 250.488281 143.316406 250.398438 143.78125 250.246094 C 144.25 250.09375 144.574219 249.957031 144.761719 249.828125 C 144.949219 249.699219 145.113281 249.570312 145.253906 249.441406 C 145.277344 249.40625 145.347656 249.390625 145.460938 249.390625 C 145.566406 249.390625 145.667969 249.425781 145.761719 249.496094 L 145.761719 254.726562 L 145.777344 259.976562 C 145.859375 260.058594 145.929688 260.113281 145.988281 260.136719 C 146.046875 260.160156 146.1875 260.183594 146.40625 260.207031 C 146.628906 260.230469 146.992188 260.242188 147.492188 260.242188 L 147.949219 260.242188 L 147.949219 261.046875 L 147.753906 261.046875 C 147.511719 261.011719 146.582031 260.992188 144.972656 260.992188 C 143.386719 260.992188 142.46875 261.011719 142.222656 261.046875 L 142.015625 261.046875 L 142.015625 260.242188 L 142.46875 260.242188 C 142.726562 260.242188 142.949219 260.242188 143.132812 260.242188 C 143.320312 260.242188 143.46875 260.234375 143.570312 260.222656 C 143.675781 260.210938 143.769531 260.195312 143.851562 260.171875 C 143.933594 260.148438 143.980469 260.136719 143.992188 260.136719 C 144.003906 260.136719 144.039062 260.105469 144.097656 260.046875 C 144.15625 259.988281 144.191406 259.964844 144.203125 259.976562 Z M 144.203125 250.929688 "/>
</g>
<g clip-path="url(#clip-5)">
<path fill-rule="nonzero" fill="rgb(11.764526%, 11.764526%, 11.764526%)" fill-opacity="1" d="M 177.757812 253.539062 C 177.441406 253.539062 177.191406 253.433594 177.003906 253.222656 C 176.816406 253.011719 176.722656 252.753906 176.722656 252.453125 C 176.722656 251.625 177.035156 250.90625 177.652344 250.300781 C 178.269531 249.691406 179.039062 249.390625 179.960938 249.390625 C 181.023438 249.390625 181.910156 249.714844 182.621094 250.371094 C 183.335938 251.023438 183.695312 251.867188 183.707031 252.90625 C 183.707031 253.410156 183.589844 253.886719 183.359375 254.34375 C 183.125 254.796875 182.84375 255.195312 182.515625 255.53125 C 182.191406 255.871094 181.722656 256.304688 181.117188 256.828125 C 180.699219 257.191406 180.113281 257.726562 179.367188 258.4375 L 178.335938 259.417969 L 179.664062 259.4375 C 181.496094 259.4375 182.472656 259.40625 182.585938 259.347656 C 182.667969 259.324219 182.808594 258.804688 183.007812 257.789062 L 183.007812 257.738281 L 183.707031 257.738281 L 183.707031 257.789062 C 183.695312 257.824219 183.621094 258.355469 183.480469 259.382812 C 183.339844 260.410156 183.253906 260.945312 183.21875 260.992188 L 183.21875 261.046875 L 176.722656 261.046875 L 176.722656 260.503906 C 176.722656 260.421875 176.757812 260.335938 176.828125 260.242188 C 176.898438 260.148438 177.074219 259.941406 177.355469 259.628906 C 177.691406 259.253906 177.984375 258.929688 178.230469 258.648438 C 178.335938 258.53125 178.53125 258.316406 178.824219 258 C 179.117188 257.683594 179.316406 257.46875 179.417969 257.351562 C 179.523438 257.234375 179.695312 257.042969 179.925781 256.777344 C 180.160156 256.507812 180.324219 256.308594 180.417969 256.179688 C 180.511719 256.050781 180.644531 255.878906 180.820312 255.65625 C 180.996094 255.433594 181.117188 255.246094 181.1875 255.09375 C 181.257812 254.945312 181.34375 254.773438 181.449219 254.585938 C 181.554688 254.402344 181.628906 254.214844 181.675781 254.027344 C 181.722656 253.839844 181.765625 253.664062 181.800781 253.503906 C 181.835938 253.339844 181.851562 253.148438 181.851562 252.925781 C 181.851562 252.191406 181.652344 251.554688 181.257812 251.015625 C 180.859375 250.480469 180.292969 250.210938 179.558594 250.210938 C 179.175781 250.210938 178.835938 250.3125 178.542969 250.507812 C 178.253906 250.707031 178.046875 250.902344 177.933594 251.085938 C 177.816406 251.273438 177.757812 251.386719 177.757812 251.417969 C 177.757812 251.429688 177.785156 251.4375 177.84375 251.4375 C 178.054688 251.4375 178.269531 251.519531 178.492188 251.683594 C 178.714844 251.847656 178.824219 252.113281 178.824219 252.488281 C 178.824219 252.777344 178.730469 253.023438 178.542969 253.222656 C 178.359375 253.421875 178.09375 253.527344 177.757812 253.539062 Z M 177.757812 253.539062 "/>
</g>
<g clip-path="url(#clip-6)">
<path fill-rule="nonzero" fill="rgb(11.764526%, 11.764526%, 11.764526%)" fill-opacity="1" d="M 212.570312 252.949219 C 212.257812 252.949219 212.011719 252.847656 211.835938 252.652344 C 211.660156 252.453125 211.570312 252.195312 211.558594 251.878906 C 211.558594 251.238281 211.835938 250.667969 212.398438 250.164062 C 212.957031 249.664062 213.632812 249.414062 214.425781 249.414062 C 214.835938 249.414062 215.09375 249.417969 215.199219 249.429688 C 216.0625 249.570312 216.71875 249.878906 217.175781 250.359375 C 217.628906 250.835938 217.863281 251.355469 217.875 251.914062 C 217.875 252.523438 217.675781 253.109375 217.28125 253.683594 C 216.882812 254.253906 216.335938 254.667969 215.636719 254.925781 L 215.582031 254.960938 C 215.582031 254.972656 215.636719 254.988281 215.738281 255.011719 C 215.84375 255.035156 216.015625 255.089844 216.246094 255.171875 C 216.480469 255.253906 216.703125 255.375 216.914062 255.539062 C 217.871094 256.15625 218.347656 256.972656 218.347656 257.988281 C 218.347656 258.910156 217.984375 259.714844 217.261719 260.402344 C 216.539062 261.09375 215.625 261.4375 214.515625 261.4375 C 213.582031 261.4375 212.777344 261.1875 212.097656 260.683594 C 211.421875 260.183594 211.085938 259.546875 211.085938 258.777344 C 211.085938 258.449219 211.1875 258.1875 211.398438 257.988281 C 211.609375 257.789062 211.871094 257.683594 212.1875 257.671875 C 212.511719 257.671875 212.78125 257.777344 212.992188 257.988281 C 213.203125 258.199219 213.308594 258.460938 213.308594 258.777344 C 213.308594 258.90625 213.289062 259.019531 213.253906 259.125 C 213.21875 259.230469 213.179688 259.324219 213.132812 259.40625 C 213.085938 259.488281 213.019531 259.558594 212.941406 259.617188 C 212.859375 259.675781 212.789062 259.722656 212.730469 259.757812 C 212.671875 259.792969 212.613281 259.816406 212.554688 259.828125 C 212.496094 259.839844 212.449219 259.855469 212.414062 259.878906 L 212.34375 259.894531 C 212.941406 260.421875 213.664062 260.683594 214.515625 260.683594 C 215.15625 260.683594 215.640625 260.375 215.96875 259.757812 C 216.164062 259.371094 216.265625 258.78125 216.265625 257.988281 L 216.265625 257.636719 C 216.265625 256.53125 215.890625 255.789062 215.144531 255.414062 C 214.96875 255.347656 214.613281 255.304688 214.078125 255.292969 L 213.34375 255.277344 L 213.289062 255.242188 C 213.265625 255.207031 213.253906 255.113281 213.253906 254.960938 C 213.253906 254.75 213.300781 254.644531 213.394531 254.644531 C 213.722656 254.644531 214.058594 254.617188 214.410156 254.558594 C 214.804688 254.5 215.167969 254.253906 215.496094 253.824219 C 215.820312 253.390625 215.984375 252.738281 215.984375 251.863281 L 215.984375 251.722656 C 215.984375 251.058594 215.78125 250.597656 215.371094 250.339844 C 215.117188 250.175781 214.839844 250.09375 214.550781 250.09375 C 214.175781 250.09375 213.832031 250.160156 213.515625 250.289062 C 213.203125 250.414062 212.980469 250.550781 212.851562 250.691406 C 212.722656 250.832031 212.660156 250.898438 212.660156 250.898438 L 212.710938 250.898438 C 212.746094 250.910156 212.792969 250.921875 212.851562 250.933594 C 212.910156 250.945312 212.96875 250.976562 213.027344 251.023438 C 213.085938 251.070312 213.15625 251.109375 213.238281 251.144531 C 213.320312 251.179688 213.378906 251.246094 213.410156 251.335938 C 213.445312 251.429688 213.492188 251.519531 213.550781 251.601562 C 213.609375 251.683594 213.628906 251.796875 213.605469 251.949219 C 213.605469 252.207031 213.523438 252.433594 213.359375 252.632812 C 213.195312 252.832031 212.933594 252.9375 212.570312 252.949219 Z M 212.570312 252.949219 "/>
</g>
<g clip-path="url(#clip-7)">
<path fill-rule="nonzero" fill="rgb(11.764526%, 11.764526%, 11.764526%)" fill-opacity="1" d="M 386.683594 243.953125 C 386.683594 243.429688 386.816406 242.898438 387.078125 242.359375 C 387.339844 241.820312 387.796875 241.320312 388.449219 240.863281 C 389.105469 240.40625 389.898438 240.1875 390.828125 240.203125 C 391.84375 240.203125 392.578125 240.421875 393.035156 240.863281 C 393.492188 241.304688 393.730469 241.796875 393.746094 242.335938 C 393.746094 242.859375 393.605469 243.242188 393.328125 243.488281 C 393.050781 243.734375 392.742188 243.863281 392.398438 243.878906 C 392.183594 243.878906 391.988281 243.816406 391.808594 243.683594 C 391.628906 243.554688 391.53125 243.339844 391.515625 243.046875 C 391.515625 242.785156 391.589844 242.554688 391.734375 242.359375 C 391.882812 242.164062 392.023438 242.015625 392.152344 241.917969 C 392.285156 241.820312 392.390625 241.773438 392.472656 241.773438 C 392.488281 241.773438 392.496094 241.761719 392.496094 241.746094 C 392.496094 241.699219 392.4375 241.625 392.324219 241.527344 C 392.210938 241.429688 392.003906 241.339844 391.710938 241.257812 C 391.417969 241.175781 391.097656 241.125 390.753906 241.109375 C 389.96875 241.109375 389.398438 241.320312 389.039062 241.746094 C 388.679688 242.171875 388.492188 242.605469 388.476562 243.046875 C 388.476562 243.457031 388.628906 243.742188 388.941406 243.90625 C 389.25 244.066406 389.699219 244.207031 390.289062 244.320312 C 390.878906 244.4375 391.300781 244.558594 391.5625 244.6875 C 392.644531 245.164062 393.183594 245.949219 393.183594 247.042969 C 393.183594 247.5 393.09375 247.957031 392.914062 248.414062 C 392.734375 248.875 392.464844 249.332031 392.105469 249.789062 C 391.742188 250.246094 391.230469 250.605469 390.558594 250.867188 C 389.890625 251.128906 389.121094 251.269531 388.253906 251.285156 C 386.996094 251.285156 386.105469 251.046875 385.582031 250.574219 C 385.058594 250.097656 384.789062 249.542969 384.773438 248.90625 C 384.773438 248.269531 384.945312 247.8125 385.289062 247.535156 C 385.632812 247.253906 385.992188 247.117188 386.367188 247.117188 C 386.613281 247.117188 386.839844 247.191406 387.054688 247.335938 C 387.265625 247.484375 387.378906 247.738281 387.394531 248.097656 C 387.394531 248.523438 387.25 248.882812 386.953125 249.175781 C 386.660156 249.46875 386.40625 249.617188 386.195312 249.617188 C 386.164062 249.632812 386.136719 249.640625 386.121094 249.640625 C 386.105469 249.640625 386.097656 249.65625 386.097656 249.691406 C 386.113281 249.738281 386.179688 249.804688 386.292969 249.886719 C 386.40625 249.96875 386.660156 250.074219 387.054688 250.207031 C 387.445312 250.335938 387.894531 250.394531 388.402344 250.378906 C 388.988281 250.378906 389.496094 250.289062 389.921875 250.109375 C 390.347656 249.929688 390.65625 249.699219 390.851562 249.421875 C 391.050781 249.144531 391.1875 248.890625 391.269531 248.660156 C 391.351562 248.433594 391.394531 248.226562 391.394531 248.046875 C 391.394531 247.589844 391.222656 247.246094 390.878906 247.019531 C 390.535156 246.789062 390.140625 246.652344 389.699219 246.601562 C 389.257812 246.550781 388.777344 246.429688 388.253906 246.234375 C 387.730469 246.039062 387.347656 245.75 387.101562 245.375 C 386.824219 244.96875 386.683594 244.492188 386.683594 243.953125 Z M 386.683594 243.953125 "/>
</g>
<g clip-path="url(#clip-8)">
<path fill-rule="nonzero" fill="rgb(11.764526%, 11.764526%, 11.764526%)" fill-opacity="1" d="M 6.496094 14.277344 C 6.496094 13.890625 6.5 13.601562 6.511719 13.402344 C 6.523438 13.203125 6.535156 13.09375 6.546875 13.070312 L 6.546875 13 L 6.285156 13.070312 C 5.75 13.199219 5.257812 13.261719 4.816406 13.261719 C 3.707031 13.261719 2.746094 12.929688 1.929688 12.265625 C 1.109375 11.597656 0.605469 10.628906 0.40625 9.359375 C 0.394531 9.265625 0.386719 9.015625 0.386719 8.605469 C 0.386719 7.414062 0.667969 6.285156 1.226562 5.210938 C 1.789062 4.136719 2.539062 3.1875 3.484375 2.359375 C 4.933594 1.15625 6.386719 0.554688 7.84375 0.554688 C 8.285156 0.554688 8.566406 0.5625 8.683594 0.574219 C 9.816406 0.734375 10.726562 1.238281 11.414062 2.078125 C 12.101562 2.917969 12.453125 3.980469 12.464844 5.261719 C 12.464844 7.363281 11.601562 9.277344 9.875 11.003906 C 9.140625 11.703125 8.375 12.234375 7.582031 12.597656 L 7.285156 12.738281 L 7.285156 12.824219 C 7.285156 12.835938 7.3125 12.992188 7.371094 13.296875 C 7.429688 13.601562 7.550781 13.84375 7.738281 14.03125 C 7.925781 14.21875 8.195312 14.3125 8.542969 14.3125 C 8.953125 14.3125 9.34375 14.183594 9.714844 13.925781 C 10.089844 13.671875 10.335938 13.335938 10.453125 12.929688 C 10.523438 12.765625 10.597656 12.683594 10.679688 12.683594 C 10.785156 12.683594 10.847656 12.738281 10.871094 12.839844 C 10.871094 12.933594 10.8125 13.144531 10.695312 13.472656 C 10.578125 13.796875 10.417969 14.183594 10.207031 14.625 C 9.996094 15.070312 9.679688 15.449219 9.261719 15.765625 C 8.839844 16.078125 8.398438 16.25 7.929688 16.273438 C 6.972656 16.273438 6.496094 15.648438 6.496094 14.398438 Z M 10.644531 4.6875 C 10.644531 4.042969 10.554688 3.484375 10.382812 3.003906 C 10.207031 2.527344 9.96875 2.171875 9.664062 1.9375 C 9.359375 1.703125 9.070312 1.53125 8.789062 1.414062 C 8.507812 1.296875 8.199219 1.238281 7.859375 1.238281 C 7.300781 1.238281 6.730469 1.382812 6.144531 1.675781 C 4.957031 2.246094 4 3.273438 3.277344 4.753906 C 2.550781 6.238281 2.191406 7.683594 2.191406 9.097656 C 2.191406 10.332031 2.503906 11.25 3.136719 11.84375 C 3.414062 12.089844 3.585938 12.210938 3.644531 12.210938 L 3.644531 12.070312 C 3.644531 11.605469 3.835938 11.171875 4.222656 10.777344 C 4.605469 10.378906 5.0625 10.175781 5.585938 10.164062 C 5.878906 10.164062 6.128906 10.226562 6.339844 10.355469 C 6.546875 10.484375 6.707031 10.660156 6.8125 10.882812 C 6.917969 11.101562 6.984375 11.289062 7.019531 11.441406 C 7.054688 11.59375 7.089844 11.75 7.125 11.914062 L 7.355469 11.757812 C 8.101562 11.242188 8.734375 10.539062 9.261719 9.640625 C 9.785156 8.742188 10.148438 7.871094 10.347656 7.03125 C 10.542969 6.191406 10.644531 5.410156 10.644531 4.6875 Z M 5.007812 12.5625 C 5.570312 12.5625 6.09375 12.4375 6.582031 12.195312 L 6.566406 12.019531 C 6.519531 11.378906 6.304688 10.992188 5.917969 10.863281 C 5.777344 10.839844 5.667969 10.828125 5.585938 10.828125 C 5.550781 10.828125 5.515625 10.828125 5.480469 10.828125 C 5.445312 10.828125 5.421875 10.824219 5.410156 10.8125 C 5.175781 10.8125 4.9375 10.929688 4.691406 11.160156 C 4.449219 11.394531 4.320312 11.664062 4.308594 11.964844 C 4.308594 12.363281 4.542969 12.5625 5.007812 12.5625 Z M 5.007812 12.5625 "/>
</g>
<g clip-path="url(#clip-9)">
<path fill-rule="nonzero" fill="rgb(11.764526%, 11.764526%, 11.764526%)" fill-opacity="1" d="M 15.003906 8.5 C 15.003906 7.695312 15.058594 6.933594 15.175781 6.207031 C 15.292969 5.484375 15.429688 4.859375 15.578125 4.335938 C 15.730469 3.808594 15.945312 3.296875 16.226562 2.796875 C 16.507812 2.292969 16.730469 1.902344 16.890625 1.621094 C 17.054688 1.34375 17.300781 1.039062 17.628906 0.710938 C 17.953125 0.386719 18.148438 0.1875 18.203125 0.117188 C 18.261719 0.046875 18.410156 -0.0742188 18.640625 -0.25 L 18.941406 -0.25 C 19.101562 -0.25 19.183594 -0.199219 19.183594 -0.09375 C 19.183594 -0.0585938 19.085938 0.0664062 18.886719 0.273438 C 18.6875 0.484375 18.449219 0.792969 18.171875 1.203125 C 17.890625 1.609375 17.605469 2.113281 17.3125 2.707031 C 17.019531 3.304688 16.777344 4.109375 16.578125 5.125 C 16.378906 6.136719 16.28125 7.265625 16.28125 8.5 C 16.28125 9.738281 16.378906 10.859375 16.578125 11.863281 C 16.777344 12.863281 17.015625 13.675781 17.292969 14.292969 C 17.574219 14.914062 17.859375 15.414062 18.152344 15.800781 C 18.445312 16.183594 18.6875 16.492188 18.886719 16.726562 C 19.085938 16.960938 19.183594 17.082031 19.183594 17.09375 C 19.183594 17.199219 19.097656 17.253906 18.921875 17.253906 L 18.640625 17.253906 L 18.152344 16.832031 C 17.054688 15.839844 16.257812 14.601562 15.753906 13.121094 C 15.253906 11.640625 15.003906 10.097656 15.003906 8.5 Z M 15.003906 8.5 "/>
</g>
<path fill-rule="nonzero" fill="rgb(11.764526%, 11.764526%, 11.764526%)" fill-opacity="1" d="M 22.457031 7.820312 C 22.457031 7.445312 22.550781 7.066406 22.738281 6.679688 C 22.925781 6.296875 23.25 5.941406 23.71875 5.613281 C 24.183594 5.285156 24.75 5.128906 25.414062 5.140625 C 26.140625 5.140625 26.664062 5.296875 26.992188 5.613281 C 27.316406 5.929688 27.488281 6.277344 27.5 6.664062 C 27.5 7.035156 27.398438 7.3125 27.199219 7.484375 C 27.003906 7.660156 26.78125 7.753906 26.535156 7.765625 C 26.382812 7.765625 26.246094 7.71875 26.117188 7.625 C 25.988281 7.53125 25.917969 7.382812 25.90625 7.171875 C 25.90625 6.984375 25.957031 6.820312 26.0625 6.679688 C 26.167969 6.539062 26.269531 6.4375 26.359375 6.367188 C 26.453125 6.296875 26.53125 6.261719 26.589844 6.261719 C 26.601562 6.261719 26.605469 6.253906 26.605469 6.242188 C 26.605469 6.207031 26.566406 6.15625 26.484375 6.085938 C 26.402344 6.015625 26.257812 5.953125 26.046875 5.894531 C 25.835938 5.835938 25.609375 5.800781 25.363281 5.789062 C 24.804688 5.789062 24.394531 5.941406 24.136719 6.242188 C 23.882812 6.546875 23.746094 6.855469 23.734375 7.171875 C 23.734375 7.460938 23.847656 7.667969 24.066406 7.785156 C 24.289062 7.898438 24.609375 8 25.03125 8.082031 C 25.449219 8.164062 25.753906 8.25 25.941406 8.34375 C 26.710938 8.683594 27.097656 9.242188 27.097656 10.023438 C 27.097656 10.351562 27.03125 10.675781 26.902344 11.003906 C 26.773438 11.332031 26.582031 11.65625 26.324219 11.984375 C 26.070312 12.3125 25.703125 12.566406 25.222656 12.753906 C 24.746094 12.941406 24.195312 13.039062 23.578125 13.050781 C 22.679688 13.050781 22.042969 12.882812 21.671875 12.542969 C 21.296875 12.207031 21.105469 11.808594 21.09375 11.355469 C 21.09375 10.898438 21.214844 10.570312 21.460938 10.375 C 21.707031 10.175781 21.960938 10.078125 22.230469 10.078125 C 22.40625 10.078125 22.570312 10.128906 22.71875 10.234375 C 22.871094 10.339844 22.953125 10.519531 22.964844 10.777344 C 22.964844 11.078125 22.859375 11.335938 22.652344 11.546875 C 22.441406 11.757812 22.257812 11.863281 22.109375 11.863281 C 22.085938 11.875 22.066406 11.878906 22.054688 11.878906 C 22.042969 11.878906 22.039062 11.890625 22.039062 11.914062 C 22.050781 11.949219 22.097656 11.996094 22.179688 12.054688 C 22.257812 12.113281 22.441406 12.1875 22.71875 12.28125 C 23 12.375 23.320312 12.414062 23.683594 12.402344 C 24.101562 12.402344 24.464844 12.339844 24.769531 12.210938 C 25.070312 12.082031 25.292969 11.917969 25.433594 11.722656 C 25.574219 11.523438 25.671875 11.34375 25.730469 11.179688 C 25.789062 11.015625 25.820312 10.871094 25.820312 10.742188 C 25.820312 10.414062 25.695312 10.167969 25.449219 10.007812 C 25.207031 9.84375 24.925781 9.742188 24.609375 9.707031 C 24.296875 9.671875 23.953125 9.585938 23.578125 9.445312 C 23.203125 9.304688 22.929688 9.101562 22.753906 8.832031 C 22.558594 8.542969 22.457031 8.203125 22.457031 7.820312 Z M 22.457031 7.820312 "/>
<path fill-rule="nonzero" fill="rgb(11.764526%, 11.764526%, 11.764526%)" fill-opacity="1" d="M 29.738281 12.265625 C 29.738281 12.265625 29.738281 12.117188 29.738281 11.828125 C 29.738281 11.535156 29.832031 11.285156 30.019531 11.074219 C 30.207031 10.863281 30.457031 10.757812 30.773438 10.757812 C 31.097656 10.757812 31.390625 10.90625 31.648438 11.195312 C 31.902344 11.488281 32.039062 12 32.050781 12.738281 C 32.050781 13.144531 31.996094 13.542969 31.890625 13.925781 C 31.785156 14.3125 31.664062 14.644531 31.523438 14.925781 C 31.382812 15.203125 31.230469 15.445312 31.070312 15.640625 C 30.90625 15.839844 30.765625 15.996094 30.648438 16.113281 C 30.53125 16.230469 30.457031 16.285156 30.421875 16.273438 C 30.375 16.273438 30.300781 16.21875 30.195312 16.113281 C 30.089844 16.007812 30.035156 15.933594 30.035156 15.886719 C 30.035156 15.839844 30.101562 15.746094 30.230469 15.605469 C 30.355469 15.46875 30.503906 15.292969 30.667969 15.082031 C 30.828125 14.871094 30.980469 14.582031 31.121094 14.207031 C 31.261719 13.832031 31.355469 13.40625 31.402344 12.929688 L 31.402344 12.71875 L 31.382812 12.738281 C 31.359375 12.75 31.332031 12.761719 31.296875 12.773438 C 31.261719 12.785156 31.226562 12.800781 31.191406 12.824219 C 31.15625 12.847656 31.105469 12.859375 31.035156 12.859375 C 30.964844 12.859375 30.894531 12.863281 30.824219 12.875 C 30.507812 12.875 30.253906 12.777344 30.054688 12.578125 Z M 29.738281 12.265625 "/>
<path fill-rule="nonzero" fill="rgb(11.764526%, 11.764526%, 11.764526%)" fill-opacity="1" d="M 36.734375 10.128906 C 36.734375 8.949219 37.179688 7.832031 38.066406 6.769531 C 38.953125 5.707031 39.949219 5.167969 41.058594 5.15625 C 41.652344 5.15625 42.175781 5.445312 42.632812 6.015625 C 42.820312 5.664062 43.085938 5.492188 43.4375 5.492188 C 43.589844 5.492188 43.722656 5.539062 43.839844 5.628906 C 43.957031 5.722656 44.015625 5.839844 44.015625 5.980469 C 44.015625 6.132812 43.800781 7.066406 43.367188 8.78125 C 42.9375 10.496094 42.714844 11.464844 42.703125 11.6875 C 42.703125 11.976562 42.742188 12.171875 42.824219 12.265625 C 42.90625 12.355469 43.03125 12.410156 43.191406 12.421875 C 43.296875 12.410156 43.414062 12.355469 43.542969 12.265625 C 43.789062 12.03125 44.027344 11.46875 44.261719 10.582031 C 44.332031 10.351562 44.390625 10.226562 44.433594 10.214844 C 44.457031 10.203125 44.515625 10.199219 44.609375 10.199219 L 44.679688 10.199219 C 44.902344 10.199219 45.011719 10.25 45.011719 10.355469 C 45.011719 10.425781 44.984375 10.582031 44.925781 10.828125 C 44.867188 11.074219 44.75 11.390625 44.574219 11.773438 C 44.402344 12.160156 44.214844 12.449219 44.015625 12.648438 C 43.863281 12.800781 43.675781 12.921875 43.457031 13.015625 C 43.363281 13.039062 43.222656 13.050781 43.035156 13.050781 C 42.636719 13.050781 42.304688 12.964844 42.039062 12.789062 C 41.769531 12.613281 41.59375 12.433594 41.511719 12.246094 L 41.40625 11.984375 C 41.394531 11.972656 41.371094 11.976562 41.335938 12 C 41.3125 12.023438 41.289062 12.046875 41.265625 12.070312 C 40.578125 12.726562 39.878906 13.050781 39.167969 13.050781 C 38.527344 13.050781 37.960938 12.816406 37.46875 12.351562 C 36.980469 11.886719 36.734375 11.144531 36.734375 10.128906 Z M 42.300781 7.136719 C 42.300781 7.066406 42.269531 6.9375 42.210938 6.75 C 42.15625 6.5625 42.019531 6.359375 41.808594 6.136719 C 41.601562 5.917969 41.332031 5.800781 41.003906 5.789062 C 40.597656 5.789062 40.207031 5.96875 39.832031 6.332031 C 39.460938 6.691406 39.167969 7.164062 38.957031 7.75 C 38.617188 8.671875 38.378906 9.628906 38.238281 10.617188 C 38.238281 10.652344 38.238281 10.71875 38.238281 10.8125 C 38.238281 10.90625 38.234375 10.976562 38.222656 11.019531 C 38.222656 11.546875 38.328125 11.90625 38.539062 12.105469 C 38.746094 12.304688 39 12.410156 39.289062 12.421875 C 39.734375 12.421875 40.171875 12.230469 40.601562 11.84375 C 41.035156 11.457031 41.289062 11.160156 41.371094 10.953125 C 41.394531 10.90625 41.554688 10.28125 41.84375 9.078125 C 42.136719 7.875 42.289062 7.230469 42.300781 7.136719 Z M 42.300781 7.136719 "/>
<path fill-rule="nonzero" fill="rgb(11.764526%, 11.764526%, 11.764526%)" fill-opacity="1" d="M 51.257812 6.804688 C 51.257812 6.652344 51.335938 6.535156 51.5 6.453125 L 62.648438 6.453125 C 62.824219 6.546875 62.914062 6.664062 62.914062 6.804688 C 62.914062 6.933594 62.832031 7.042969 62.667969 7.136719 L 57.101562 7.152344 L 51.535156 7.152344 C 51.347656 7.09375 51.257812 6.976562 51.257812 6.804688 Z M 51.257812 10.199219 C 51.257812 10.023438 51.347656 9.90625 51.535156 9.847656 L 62.667969 9.847656 C 62.832031 9.964844 62.914062 10.082031 62.914062 10.199219 C 62.914062 10.351562 62.824219 10.46875 62.648438 10.546875 L 51.5 10.546875 C 51.335938 10.46875 51.257812 10.351562 51.257812 10.199219 Z M 51.257812 10.199219 "/>
<g clip-path="url(#clip-10)">
<path fill-rule="nonzero" fill="rgb(11.764526%, 11.764526%, 11.764526%)" fill-opacity="1" d="M 69.488281 12.070312 L 69.734375 12.070312 C 70.191406 12.070312 70.464844 11.988281 70.558594 11.828125 L 70.558594 11.6875 C 70.558594 11.582031 70.558594 11.445312 70.558594 11.285156 C 70.558594 11.121094 70.558594 10.929688 70.558594 10.707031 C 70.558594 10.484375 70.5625 10.234375 70.574219 9.953125 C 70.585938 9.671875 70.585938 9.382812 70.574219 9.078125 C 70.5625 8.773438 70.5625 8.453125 70.574219 8.117188 C 70.585938 7.777344 70.585938 7.445312 70.574219 7.117188 C 70.574219 6.6875 70.574219 6.230469 70.574219 5.753906 C 70.574219 5.273438 70.574219 4.835938 70.574219 4.441406 C 70.574219 4.042969 70.574219 3.695312 70.574219 3.390625 C 70.574219 3.085938 70.570312 2.832031 70.558594 2.621094 C 70.546875 2.410156 70.546875 2.3125 70.558594 2.324219 C 70.523438 2.101562 70.441406 1.957031 70.3125 1.886719 C 70.183594 1.816406 69.921875 1.761719 69.523438 1.726562 L 69.210938 1.726562 L 69.210938 1.324219 C 69.210938 1.058594 69.222656 0.921875 69.246094 0.921875 L 69.417969 0.90625 C 69.535156 0.894531 69.707031 0.882812 69.925781 0.871094 C 70.148438 0.859375 70.363281 0.847656 70.574219 0.835938 C 70.773438 0.824219 70.988281 0.8125 71.222656 0.800781 C 71.457031 0.789062 71.632812 0.769531 71.746094 0.746094 C 71.863281 0.722656 71.929688 0.71875 71.941406 0.730469 L 71.992188 0.730469 L 71.992188 6.242188 C 71.992188 9.941406 72 11.804688 72.011719 11.828125 C 72.058594 11.917969 72.125 11.984375 72.21875 12.019531 C 72.464844 12.054688 72.75 12.070312 73.078125 12.070312 L 73.359375 12.070312 L 73.359375 12.875 L 73.21875 12.875 L 72.816406 12.859375 C 72.546875 12.847656 72.261719 12.839844 71.957031 12.839844 C 71.652344 12.839844 71.433594 12.835938 71.292969 12.824219 C 71.152344 12.8125 70.929688 12.8125 70.628906 12.824219 C 70.324219 12.835938 70.03125 12.847656 69.753906 12.859375 L 69.351562 12.875 L 69.210938 12.875 L 69.210938 12.070312 Z M 69.488281 12.070312 "/>
</g>
<path fill-rule="nonzero" fill="rgb(11.764526%, 11.764526%, 11.764526%)" fill-opacity="1" d="M 74.109375 9.0625 C 74.109375 8.417969 74.226562 7.835938 74.460938 7.3125 C 74.695312 6.785156 74.984375 6.359375 75.335938 6.035156 C 75.6875 5.707031 76.066406 5.460938 76.472656 5.296875 C 76.882812 5.136719 77.265625 5.046875 77.628906 5.035156 C 78.246094 5.035156 78.777344 5.140625 79.222656 5.351562 C 79.664062 5.5625 80.003906 5.851562 80.234375 6.226562 C 80.46875 6.597656 80.632812 6.972656 80.726562 7.347656 C 80.820312 7.71875 80.871094 8.132812 80.882812 8.589844 C 80.882812 8.671875 80.84375 8.75 80.761719 8.832031 L 75.824219 8.832031 L 75.824219 9.097656 C 75.824219 10.824219 76.410156 11.875 77.574219 12.246094 C 77.808594 12.316406 78.066406 12.351562 78.347656 12.351562 C 78.835938 12.351562 79.257812 12.164062 79.605469 11.792969 C 79.804688 11.59375 79.960938 11.347656 80.078125 11.054688 L 80.253906 10.636719 C 80.289062 10.601562 80.382812 10.582031 80.535156 10.582031 L 80.585938 10.582031 C 80.785156 10.582031 80.882812 10.640625 80.882812 10.757812 C 80.882812 10.804688 80.867188 10.882812 80.832031 10.988281 C 80.609375 11.628906 80.242188 12.136719 79.730469 12.507812 C 79.214844 12.882812 78.636719 13.070312 77.996094 13.070312 C 76.886719 13.070312 75.964844 12.667969 75.230469 11.863281 C 74.496094 11.054688 74.121094 10.121094 74.109375 9.0625 Z M 79.449219 8.0625 C 79.320312 6.570312 78.765625 5.777344 77.785156 5.683594 L 77.75 5.683594 C 77.65625 5.683594 77.5625 5.6875 77.472656 5.699219 C 77.378906 5.710938 77.230469 5.757812 77.035156 5.839844 C 76.835938 5.921875 76.664062 6.046875 76.527344 6.207031 C 76.386719 6.371094 76.25 6.609375 76.125 6.925781 C 75.996094 7.242188 75.902344 7.625 75.84375 8.082031 L 75.84375 8.203125 L 79.449219 8.203125 Z M 79.449219 8.0625 "/>
<g clip-path="url(#clip-11)">
<path fill-rule="nonzero" fill="rgb(11.764526%, 11.764526%, 11.764526%)" fill-opacity="1" d="M 86.167969 12.875 C 85.960938 12.839844 85.21875 12.824219 83.945312 12.824219 C 82.746094 12.824219 82.089844 12.839844 81.988281 12.875 L 81.847656 12.875 L 81.847656 12.070312 L 82.125 12.070312 C 82.453125 12.070312 82.738281 12.054688 82.984375 12.019531 C 83.078125 11.984375 83.148438 11.917969 83.195312 11.828125 C 83.207031 11.804688 83.210938 10.847656 83.210938 8.957031 L 83.210938 6.136719 L 81.96875 6.136719 L 81.96875 5.332031 L 83.210938 5.332031 L 83.210938 4.179688 L 83.230469 3.003906 L 83.265625 2.832031 C 83.484375 2.070312 83.859375 1.523438 84.382812 1.183594 C 84.910156 0.847656 85.464844 0.636719 86.046875 0.554688 C 86.058594 0.554688 86.109375 0.554688 86.203125 0.554688 C 86.296875 0.554688 86.378906 0.550781 86.449219 0.539062 C 86.929688 0.574219 87.289062 0.722656 87.535156 0.992188 C 87.78125 1.261719 87.902344 1.5625 87.902344 1.902344 C 87.902344 2.171875 87.820312 2.386719 87.65625 2.550781 C 87.492188 2.714844 87.277344 2.796875 87.007812 2.796875 C 86.742188 2.796875 86.523438 2.714844 86.363281 2.550781 C 86.199219 2.386719 86.117188 2.171875 86.117188 1.902344 C 86.117188 1.667969 86.222656 1.4375 86.433594 1.203125 L 86.363281 1.203125 C 86.316406 1.191406 86.25 1.183594 86.167969 1.183594 C 85.84375 1.183594 85.550781 1.308594 85.292969 1.550781 C 85.039062 1.796875 84.839844 2.117188 84.699219 2.515625 C 84.628906 2.75 84.589844 3.304688 84.578125 4.179688 L 84.578125 5.332031 L 86.519531 5.332031 L 86.519531 6.136719 L 84.628906 6.136719 L 84.628906 8.9375 C 84.628906 10.828125 84.636719 11.785156 84.648438 11.808594 C 84.660156 11.832031 84.675781 11.855469 84.699219 11.878906 C 84.722656 11.902344 84.75 11.917969 84.785156 11.929688 C 84.820312 11.941406 84.851562 11.960938 84.875 11.984375 C 84.898438 12.007812 84.9375 12.019531 84.996094 12.019531 C 85.054688 12.019531 85.097656 12.023438 85.121094 12.035156 C 85.140625 12.046875 85.195312 12.054688 85.277344 12.054688 C 85.359375 12.054688 85.410156 12.054688 85.433594 12.054688 C 85.457031 12.054688 85.515625 12.058594 85.609375 12.070312 C 85.703125 12.082031 85.761719 12.082031 85.785156 12.070312 L 86.328125 12.070312 L 86.328125 12.875 Z M 86.167969 12.875 "/>
</g>
<path fill-rule="nonzero" fill="rgb(11.764526%, 11.764526%, 11.764526%)" fill-opacity="1" d="M 87.21875 5.492188 C 87.835938 5.445312 88.316406 5.117188 88.65625 4.511719 C 88.992188 3.902344 89.179688 3.191406 89.214844 2.375 L 89.214844 2.113281 L 89.914062 2.113281 L 89.914062 5.332031 L 92.277344 5.332031 L 92.277344 6.136719 L 89.914062 6.136719 L 89.914062 8.660156 C 89.925781 10.117188 89.933594 10.941406 89.933594 11.125 C 89.933594 11.3125 89.972656 11.5 90.054688 11.6875 C 90.21875 12.140625 90.503906 12.367188 90.914062 12.367188 C 91.425781 12.367188 91.742188 11.953125 91.859375 11.125 C 91.871094 11.03125 91.875 10.765625 91.875 10.320312 L 91.875 9.707031 L 92.574219 9.707031 L 92.574219 10.53125 C 92.574219 11.429688 92.332031 12.113281 91.839844 12.578125 C 91.523438 12.894531 91.117188 13.050781 90.613281 13.050781 C 90.21875 13.050781 89.875 12.980469 89.582031 12.839844 C 89.289062 12.703125 89.070312 12.519531 88.917969 12.300781 C 88.765625 12.078125 88.65625 11.875 88.585938 11.6875 C 88.515625 11.5 88.472656 11.3125 88.460938 11.125 C 88.449219 11.042969 88.445312 10.179688 88.445312 8.535156 L 88.445312 6.136719 L 87.0625 6.136719 L 87.0625 5.492188 Z M 87.21875 5.492188 "/>
<g clip-path="url(#clip-12)">
<path fill-rule="nonzero" fill="rgb(11.764526%, 11.764526%, 11.764526%)" fill-opacity="1" d="M 94.605469 -0.234375 L 94.675781 -0.25 C 94.734375 -0.25 94.792969 -0.25 94.851562 -0.25 L 95.058594 -0.25 L 95.550781 0.171875 C 96.648438 1.160156 97.445312 2.398438 97.949219 3.878906 C 98.449219 5.363281 98.699219 6.902344 98.699219 8.5 C 98.699219 9.292969 98.640625 10.058594 98.527344 10.792969 C 98.410156 11.527344 98.273438 12.152344 98.125 12.667969 C 97.972656 13.179688 97.753906 13.695312 97.476562 14.207031 C 97.195312 14.71875 96.972656 15.109375 96.8125 15.378906 C 96.648438 15.648438 96.40625 15.945312 96.09375 16.273438 C 95.777344 16.597656 95.589844 16.792969 95.53125 16.847656 C 95.476562 16.90625 95.339844 17.019531 95.128906 17.183594 C 95.09375 17.21875 95.070312 17.242188 95.058594 17.253906 L 94.851562 17.253906 C 94.757812 17.253906 94.691406 17.253906 94.65625 17.253906 C 94.621094 17.253906 94.59375 17.234375 94.570312 17.199219 C 94.546875 17.164062 94.53125 17.113281 94.519531 17.042969 C 94.53125 17.03125 94.59375 16.953125 94.710938 16.816406 C 96.519531 14.9375 97.421875 12.164062 97.421875 8.5 C 97.421875 4.835938 96.519531 2.066406 94.710938 0.1875 C 94.59375 0.046875 94.53125 -0.0273438 94.519531 -0.0390625 C 94.519531 -0.132812 94.546875 -0.199219 94.605469 -0.234375 Z M 94.605469 -0.234375 "/>
</g>
</g>
</defs>
<use xlink:href="#source-5"/>
</svg>
